<?xml version="1.0" encoding="UTF-8" standalone="no"?>
<!-- Created with Inkscape (http://www.inkscape.org/) -->

<svg
   width="212.34448mm"
   height="221.45792mm"
   viewBox="0 0 212.34448 221.45792"
   version="1.1"
   id="svg1"
   xml:space="preserve"
   xmlns="http://www.w3.org/2000/svg"
   xmlns:svg="http://www.w3.org/2000/svg"><defs
     id="defs1" /><path
     style="opacity:0.254;fill:#2b0000;fill-opacity:1;stroke-width:0.529167"
     d="m 85.804508,217.5798 c -10.579306,-4.57275 -21.8872,-9.75997 -42.862499,-19.66213 -5.675312,-2.67924 -13.703062,-6.37412 -17.839444,-8.21085 -10.857834,-4.82133 -13.45345,-6.83897 -15.9889804,-12.42865 -1.0447764,-2.30325 -1.0736394,-3.33936 -1.0849524,-38.9462 -0.01043,-32.82438 -0.09825,-36.65189 -0.855373,-37.28025 -0.464063,-0.38514 -1.533391,-1.902574 -2.376284,-3.372069 l -1.532533,-2.67184 -0.005,-10.204048 c -0.0047,-9.76867 0.05003,-10.312579 1.283967,-12.747635 2.145911,-4.234754 6.3694878,-7.323995 13.5277328,-9.894557 2.182812,-0.78386 5.159375,-1.968399 6.614583,-2.632313 8.02172,-3.659764 14.965516,-6.37322 21.878409,-8.549507 4.265208,-1.342758 7.959227,-2.619934 8.208933,-2.838167 0.249703,-0.218234 -0.345609,-2.022523 -1.322916,-4.00953 -1.599415,-3.25183 -1.775767,-4.062857 -1.765319,-8.118491 0.0094,-3.650446 0.239763,-4.937186 1.213543,-6.778554 1.748703,-3.306704 4.414205,-6.043687 7.610055,-7.814132 2.628026,-1.455883 3.176545,-1.554732 8.627295,-1.554732 5.121163,0 6.107059,0.152067 8.202083,1.265108 4.816549,2.558928 8.558837,5.48944 11.384142,8.914688 2.79336,3.386519 7.262273,10.736527 8.691065,14.294162 0.37988,0.945886 1.001694,1.719792 1.381804,1.719792 0.567497,0 3.413811,-5.042207 3.413811,-6.047507 0,-0.454626 4.62962,-7.105967 6.73121,-9.67068 2.60121,-3.174436 7.9105,-7.29819 11.61082,-9.018189 2.73469,-1.27116 3.72685,-1.437179 8.64546,-1.446662 5.21399,-0.01005 5.75183,0.09174 8.73125,1.652534 3.55425,1.861913 5.97018,4.259524 7.69105,7.632712 1.00801,1.975866 1.1278,2.892558 0.92388,7.070455 -0.19083,3.90982 -0.51112,5.353289 -1.72664,7.781624 -0.82079,1.639755 -1.35895,3.329 -1.1959,3.753879 0.16304,0.424878 1.80645,1.306568 3.65202,1.959311 5.67019,2.00543 23.80362,9.108273 27.281,10.685931 1.80835,0.820435 3.95148,1.650322 4.7625,1.844193 0.81103,0.193873 1.71272,0.536477 2.00376,0.761344 0.29104,0.224867 1.42476,0.576215 2.51939,0.780772 1.09462,0.20456 2.1207,0.583054 2.28018,0.841102 0.15949,0.258049 0.63645,0.469181 1.05991,0.469181 1.53793,0 4.45633,2.436847 5.74565,4.797583 1.89839,3.475922 2.59673,8.97825 2.28353,17.992291 -0.28555,8.218242 -0.61985,9.459042 -3.33722,12.386561 l -1.46135,1.57436 0.36173,37.86172 0.36172,37.86172 -1.46719,2.89362 c -2.04427,4.03175 -4.44157,5.62194 -14.60671,9.68901 -4.82296,1.92967 -14.38069,6.01786 -21.2394,9.08486 -6.8587,3.06701 -14.19271,6.26769 -16.2978,7.11262 -2.10509,0.84494 -9.78057,4.19955 -17.0566,7.4547 -16.19535,7.24546 -19.31833,8.45396 -21.840201,8.45158 -1.309348,-0.001 -5.618559,-1.57791 -12.820205,-4.69072 z m 8.458565,-43.85846 c -0.0044,-20.59119 -0.183049,-37.7041 -0.396875,-38.02867 -0.213825,-0.32458 -0.934825,-0.7606 -1.602226,-0.96895 -0.667396,-0.20834 -6.001517,-2.38356 -11.853598,-4.83382 -5.852086,-2.45026 -10.961502,-4.45501 -11.35426,-4.45501 -0.592603,0 -0.714105,6.3414 -0.714105,37.27059 v 37.27058 l 1.13884,0.36146 c 0.626364,0.1988 6.281833,2.71018 12.567709,5.58084 6.28588,2.87065 11.607461,5.22436 11.825742,5.23045 0.218281,0.006 0.393229,-16.83627 0.388773,-37.42747 z m 24.614337,30.76329 12.7,-5.46813 0.13169,-2.52726 c 0.0724,-1.39 -0.0466,-18.12446 -0.26459,-37.18769 -0.39158,-34.25089 -0.40877,-34.65849 -1.4546,-34.49753 -0.58208,0.0896 -6.83189,2.47084 -13.88847,5.29167 l -12.83014,5.12878 -0.002,36.04948 c -0.001,19.82721 0.14791,36.79982 0.33133,37.71691 0.41144,2.05722 -0.79041,2.41174 15.27693,-4.50623 z M 58.817009,141.08371 V 87.940875 l 1.446858,-1.1381 c 1.016122,-0.79928 1.885743,-1.050316 2.921095,-0.843248 1.627029,0.325406 18.146681,6.655824 28.339235,10.859734 3.582389,1.47756 7.006162,2.686462 7.608399,2.686462 0.602227,0 7.077114,-2.360692 14.388644,-5.245982 13.7812,-5.438375 21.20638,-7.98318 23.29314,-7.98318 0.66747,0 1.66721,0.501026 2.22164,1.113393 0.97175,1.073288 1.01992,2.955637 1.33736,52.255196 0.18112,28.128 0.35971,51.91572 0.39687,52.86161 0.0832,2.11698 0.57034,2.14959 5.0891,0.3406 l 3.44515,-1.37918 -0.0148,-52.46352 -0.0148,-52.463515 -4.08628,-1.77546 c -2.24738,-0.976503 -10.03933,-3.85971 -17.31537,-6.407129 -11.20659,-3.923543 -16.07259,-5.799228 -27.79644,-10.714598 -1.135341,-0.47601 -2.017298,-0.23535 -5.820817,1.588309 -4.892542,2.345814 -19.927083,7.871455 -29.717682,10.922132 -6.319806,1.969209 -13.028178,4.989285 -14.188776,6.387719 -0.886761,1.068483 -1.093091,103.622242 -0.210264,104.508062 0.776203,0.77882 6.580772,3.14793 7.751696,3.16381 0.875882,0.0119 0.926042,-2.86604 0.926042,-53.13028 z m 109.747411,41.69898 c 4.39568,-1.9285 9.12325,-4.07563 10.5057,-4.77141 l 2.51354,-1.26506 v -35.44525 c 0,-33.40949 -0.0532,-35.44451 -0.92604,-35.43243 -1.2861,0.0178 -21.82467,8.09727 -21.82658,8.58614 -7.9e-4,0.21828 -0.002,16.47031 -0.002,36.11562 0,32.81147 0.0709,35.71875 0.87138,35.71875 0.47926,0 4.46785,-1.57786 8.86354,-3.50636 z m -128.60789,0.99282 c 0.180398,-1.09141 0.330618,-17.1457 0.333822,-35.67622 l 0.0058,-33.69185 -2.778125,-0.91086 c -1.527969,-0.50097 -6.682151,-2.4303 -11.453737,-4.2874 -4.771587,-1.8571 -8.819712,-3.23234 -8.995834,-3.05611 -0.176121,0.17624 -0.320221,15.51555 -0.320221,34.08735 0,32.21951 0.04526,33.81692 0.987706,34.8582 0.543239,0.60021 3.281676,2.21532 6.085417,3.58914 6.133097,3.00517 15.024692,7.06601 15.479516,7.06956 0.1802,0.001 0.475234,-0.8904 0.655632,-1.98181 z m 54.314645,-67.27024 v -8.92962 l -12.423293,-5.0933 c -6.832817,-2.801317 -12.6414,-5.093289 -12.907973,-5.093289 -0.924031,0 -1.127067,1.712485 -1.127067,9.506149 v 7.83211 l 12.303125,5.31518 c 6.766719,2.92336 12.719843,5.33256 13.229166,5.35379 0.846884,0.0353 0.926042,-0.7247 0.926042,-8.89102 z m 23.231315,3.44312 c 6.86808,-2.72654 12.90414,-5.10031 13.41346,-5.27507 0.83032,-0.28488 0.92605,-1.19629 0.92605,-8.8176 0,-6.721564 -0.15214,-8.558259 -0.7272,-8.778929 -0.78728,-0.3021 -14.71219,4.816619 -22.342,8.212819 l -4.71205,2.09744 -0.14509,8.75934 c -0.10671,6.44253 0.0195,8.75933 0.47716,8.75933 0.34223,0 6.24158,-2.2308 13.10967,-4.95733 z M 40.233567,96.727601 C 40.142347,85.741341 40.534579,86.523624 33.946176,84.187639 30.890238,83.104128 24.97987,80.845782 20.812023,79.169091 16.644177,77.4924 13.118716,76.235968 12.977667,76.377017 c -0.14105,0.14105 -0.399027,4.089871 -0.573282,8.77516 l -0.316829,8.518704 2.065768,0.87931 c 9.86254,4.198048 23.988551,9.691269 24.952227,9.703239 1.1826,0.0147 1.190204,-0.036 1.128016,-7.525829 z m 133.148013,2.091098 12.17083,-4.904718 0.1316,-8.184335 c 0.0724,-4.501382 -0.0809,-8.514566 -0.34056,-8.918183 -0.38091,-0.592037 -2.9627,0.241898 -13.36076,4.315598 l -12.88861,5.04944 -0.14509,8.78128 -0.14508,8.781269 1.20342,-0.008 c 0.66188,-0.004 6.68029,-2.21495 13.37425,-4.912541 z M 47.781878,77.025072 c 2.14026,-1.013735 9.606381,-3.846343 16.591381,-6.294681 C 84.089754,63.81949 85.651812,63.143855 84.481592,62.032973 84.19055,61.75669 81.452113,60.769347 78.396175,59.838882 75.340238,58.908413 70.72228,57.306867 68.134041,56.279884 64.710899,54.921624 62.941408,54.491637 61.642468,54.702425 59.79375,55.002431 26.783355,68.071358 25.611801,68.967086 c -1.040831,0.795784 -0.81486,1.15298 1.5875,2.509385 2.19063,1.236861 15.666942,7.306164 16.349244,7.363182 0.188074,0.01572 2.093074,-0.800846 4.233333,-1.814581 z M 163.14085,74.974747 c 4.76922,-1.827964 10.50531,-4.56732 10.50531,-5.016974 0,-0.201962 -6.60797,-2.962219 -14.68437,-6.133907 -8.07641,-3.171684 -16.68682,-6.705017 -19.13425,-7.851846 l -4.44987,-2.085144 -5.60429,2.245032 c -3.08237,1.234768 -7.55409,2.906426 -9.93716,3.7148 -6.24738,2.119193 -6.4671,2.27765 -4.73344,3.413591 0.77853,0.510116 7.18507,3.013948 14.23674,5.564068 7.05167,2.55012 15.53511,5.709298 18.85207,7.020393 l 6.03086,2.383817 2.70039,-0.952797 c 1.48523,-0.524039 4.28333,-1.559501 6.21801,-2.301033 z M 91.911298,53.071353 c -0.527748,-2.145538 -4.130072,-8.669581 -5.138102,-9.305427 -0.691256,-0.436033 -1.153377,-0.213574 -2.24072,1.078658 -0.753422,0.895393 -2.331201,2.012641 -3.506173,2.482771 -2.036858,0.814988 -3.144091,2.099133 -2.427669,2.815553 0.519912,0.519914 11.585575,4.315095 12.6872,4.351316 0.810593,0.02665 0.920506,-0.223385 0.625464,-1.422871 z m 20.277422,-0.108074 c 5.73613,-1.87448 9.06994,-3.503605 9.06994,-4.432178 0,-0.375259 -2.18412,-1.679911 -4.8536,-2.89923 -4.4216,-2.019623 -4.9341,-2.144094 -5.75804,-1.398442 -0.97724,0.884391 -4.20502,8.166864 -4.20502,9.487307 0,1.077688 0.2195,1.048755 5.74672,-0.757457 z M 71.317449,44.418333 c 1.419448,-0.611817 3.874236,-1.710825 5.455084,-2.442239 1.580854,-0.731414 3.723979,-1.623748 4.7625,-1.982962 2.866951,-0.991651 2.673461,-2.106245 -0.982911,-5.661957 -4.004485,-3.894246 -7.719367,-5.721551 -11.64617,-5.72861 -9.521782,-0.01712 -12.297251,8.833242 -4.66262,14.868073 3.008842,2.37835 3.578024,2.4546 7.074117,0.947695 z m 62.553971,-0.879234 c 2.78048,-2.057512 3.78717,-4.149659 3.78943,-7.875429 0.002,-3.05185 -0.11156,-3.352168 -1.83879,-4.868691 -4.51705,-3.966016 -12.91984,-2.489065 -18.96323,3.33315 -1.49198,1.437383 -2.47875,2.828356 -2.38125,3.356679 0.175,0.948221 9.35211,5.744284 13.66025,7.138992 2.67979,0.86755 3.23809,0.761929 5.73359,-1.084701 z"
     id="path577" /><g
     id="layer1"
     transform="translate(5.9711811,-4.0451173)"><g
       id="g569"><path
         style="fill:#d0d0d0;fill-opacity:1"
         d="m 97.574467,150.50507 c 0.111851,-0.29148 0.420989,-0.44645 0.686974,-0.34439 0.265985,0.10207 0.843795,-0.0667 1.284022,-0.37505 0.440227,-0.30835 1.040547,-0.56063 1.334057,-0.56063 0.58042,0 -1.43535,1.15831 -2.716887,1.56119 -0.616678,0.19387 -0.746606,0.13177 -0.588166,-0.28112 z m -26.732281,-4.69606 c 0.254662,-0.1019 0.558932,-0.0894 0.676158,0.0279 0.117225,0.11723 -0.09113,0.20061 -0.463021,0.18529 -0.410966,-0.0169 -0.494559,-0.10052 -0.213137,-0.21314 z m -6.481011,-2.39362 c -0.376633,-0.28487 -0.526037,-0.51795 -0.332009,-0.51795 0.194028,0 0.660932,0.23308 1.037565,0.51795 0.376633,0.28487 0.526037,0.51794 0.33201,0.51794 -0.194028,0 -0.660932,-0.23307 -1.037566,-0.51794 z M 62.794444,142.875 c -0.317956,-0.20548 -0.361468,-0.34413 -0.109015,-0.34737 0.231084,-0.003 0.518266,0.15334 0.638181,0.34737 0.270688,0.43798 0.148563,0.43798 -0.529166,0 z m -1.411111,-0.70555 c -0.317956,-0.20548 -0.361468,-0.34413 -0.109015,-0.34738 0.231084,-0.003 0.518266,0.15335 0.638181,0.34738 0.270688,0.43798 0.148563,0.43798 -0.529166,0 z m -0.957434,-3.35139 c 0.0026,-0.97014 0.07116,-1.32515 0.152247,-0.7889 0.08109,0.53624 0.07892,1.32999 -0.0048,1.76389 -0.08374,0.43389 -0.150081,-0.005 -0.147432,-0.97499 z m 40.069511,-1.35538 c 0.2161,-0.26039 0.27522,-0.60334 0.13139,-0.76211 -0.14384,-0.15878 -0.0664,-0.17652 0.17216,-0.0394 0.23852,0.13709 0.79415,0.0691 1.23472,-0.15117 0.58859,-0.29423 0.52035,-0.16158 -0.25729,0.50016 -1.12472,0.95708 -1.938231,1.24448 -1.28098,0.45254 z m -69.775891,-6.08235 c 0.01693,-0.41097 0.100521,-0.49456 0.213137,-0.21314 0.101907,0.25466 0.08937,0.55893 -0.02785,0.67616 -0.117225,0.11722 -0.200604,-0.0911 -0.185287,-0.46302 z m 120.588221,-0.65128 c -0.0833,-0.0833 -0.0938,-0.8766 -0.0234,-1.76281 0.16341,-2.05459 0.81942,-1.72574 0.71162,0.35673 -0.0733,1.41594 -0.27215,1.82219 -0.68826,1.40608 z m 1.37888,-0.44226 c 0.25467,-0.1019 0.55894,-0.0894 0.67616,0.0279 0.11723,0.11723 -0.0911,0.20061 -0.46302,0.18529 -0.41097,-0.0169 -0.49456,-0.10052 -0.21314,-0.21314 z M 161.92499,127 c 0,-0.19403 0.15875,-0.35278 0.35278,-0.35278 0.19403,0 0.35278,0.15875 0.35278,0.35278 0,0.19403 -0.15875,0.35278 -0.35278,0.35278 -0.19403,0 -0.35278,-0.15875 -0.35278,-0.35278 z m 1.76389,-0.70555 c 0.29104,-0.18809 0.76729,-0.34198 1.05833,-0.34198 0.47037,0 0.47037,0.038 0,0.34198 -0.29104,0.18808 -0.76729,0.34197 -1.05833,0.34197 -0.47037,0 -0.47037,-0.038 0,-0.34197 z m 2.29306,-0.7908 c 0.89921,-0.53091 1.65113,-0.65591 1.38841,-0.23081 -0.11134,0.18016 -0.33926,0.24301 -0.50647,0.13966 -0.16721,-0.10334 -0.40374,-0.0266 -0.52561,0.17064 -0.12187,0.19719 -0.41065,0.3537 -0.64174,0.3478 -0.23108,-0.006 -0.10265,-0.19818 0.28541,-0.42729 z M 12.700003,124.88334 c -0.291041,-0.18809 -0.370416,-0.34198 -0.176389,-0.34198 0.194028,0 0.590903,0.15389 0.881945,0.34198 0.291041,0.18808 0.370416,0.34197 0.176389,0.34197 -0.194028,0 -0.590903,-0.15389 -0.881945,-0.34197 z m 155.480917,-0.0438 c 0.2393,-0.24109 0.52396,-0.34949 0.63257,-0.24087 0.10862,0.10862 -0.0872,0.30587 -0.43509,0.43835 -0.50278,0.19145 -0.5433,0.15093 -0.19748,-0.19748 z m 4.09323,-5.60067 c 0,-1.45521 0.0623,-2.05052 0.13838,-1.32291 0.0761,0.7276 0.0761,1.91822 0,2.64583 -0.0761,0.7276 -0.13838,0.13229 -0.13838,-1.32292 z M 22.130929,115.66734 c 0.2393,-0.2411 0.523959,-0.34949 0.632575,-0.24087 0.108616,0.10861 -0.08718,0.30587 -0.435092,0.43835 -0.502779,0.19145 -0.5433,0.15093 -0.197483,-0.19748 z m 150.080321,-0.309 c 0,-0.48507 0.0801,-0.68351 0.17793,-0.44098 0.0979,0.24254 0.0979,0.63941 0,0.88195 -0.0979,0.24253 -0.17793,0.0441 -0.17793,-0.44097 z m -75.861997,-3.0744 c -0.02345,-0.44776 0.256904,-0.94073 0.656693,-1.15469 0.569152,-0.3046 0.659646,-0.2744 0.491423,0.16398 -0.113406,0.29553 -0.336318,0.53733 -0.49536,0.53733 -0.159042,0 -0.361767,0.27781 -0.4505,0.61736 -0.123279,0.47174 -0.170986,0.43306 -0.202256,-0.16398 z m -15.386755,-0.395 c -0.582083,-0.3545 -1.501388,-0.75543 -2.0429,-0.89097 -0.541512,-0.13554 -0.903677,-0.37731 -0.804812,-0.53728 0.242278,-0.39201 -1.366521,-1.09586 -2.548748,-1.11507 -0.524447,-0.009 -2.06479,-0.5558 -3.422984,-1.21618 -1.358194,-0.66038 -4.570045,-1.88371 -7.137446,-2.71853 -2.567401,-0.83482 -4.614257,-1.6766 -4.548569,-1.87063 0.06569,-0.19403 -0.01766,-0.72328 -0.185215,-1.17613 -0.167558,-0.45284 -0.218129,-0.96335 -0.112381,-1.13445 0.193683,-0.31339 2.62579,0.64604 3.02722,1.19419 0.118707,0.16209 0.317145,0.28115 0.440972,0.26458 0.803438,-0.10753 1.301113,0.0379 1.784737,0.52153 0.303413,0.30341 0.736155,0.43763 0.96165,0.29827 0.273758,-0.16919 0.314039,-0.0981 0.121224,0.21384 -0.211425,0.3421 -0.12663,0.40502 0.316593,0.23494 0.40491,-0.15538 0.52262,-0.0984 0.355485,0.17201 -0.16996,0.275 -0.0064,0.34064 0.511331,0.20525 0.492617,-0.12882 0.678377,-0.065 0.526459,0.18077 -0.149906,0.24255 -0.01596,0.29587 0.370614,0.14753 0.359578,-0.13799 0.517853,-0.0907 0.389829,0.11644 -0.123652,0.20007 0.233761,0.34873 0.838423,0.34873 0.579676,0 1.284521,0.23057 1.566323,0.51237 0.281802,0.2818 0.610641,0.41409 0.730754,0.29398 0.120112,-0.12011 0.218386,-0.0446 0.218386,0.16784 0,0.49867 3.812143,1.93196 4.313814,1.6219 0.24444,-0.15107 0.277658,-0.0679 0.09254,0.23158 -0.20538,0.33231 -0.130943,0.40667 0.25777,0.25751 0.300596,-0.11535 0.882264,0.0254 1.292594,0.31283 0.41033,0.2874 0.746055,0.42284 0.746055,0.30096 0,-0.12187 0.258594,0.037 0.574654,0.35307 0.316059,0.31606 0.800554,0.48796 1.076655,0.38201 0.276102,-0.10595 0.418709,-0.0579 0.316905,0.10686 -0.101804,0.16472 0.445576,0.58389 1.2164,0.93148 0.770823,0.3476 1.401497,0.76165 1.401497,0.92012 0,0.15847 0.277812,0.19238 0.617361,0.0754 0.501408,-0.17281 0.484843,-0.10658 -0.08819,0.35263 -0.930466,0.74564 -1.882446,0.72785 -3.175,-0.0593 z m -15.345832,-6.94628 c 0,-0.18931 -0.899757,-0.57054 -2.469444,-1.04632 -1.349952,-0.40917 -0.584225,0.17439 0.943888,0.71934 1.613865,0.57553 1.525556,0.5566 1.525556,0.32698 z M 101.6,108.77833 c 0,-0.38404 0.15741,-0.41613 0.67709,-0.138 0.48725,0.26076 0.71638,0.24452 0.81721,-0.058 0.0948,-0.28441 0.20423,-0.2532 0.33842,0.0965 0.14408,0.37546 -0.0795,0.52817 -0.8172,0.55832 -0.66104,0.027 -1.01552,-0.13316 -1.01552,-0.45887 z m 50.25632,-18.137906 c -0.12789,-0.206937 -0.13726,-0.47152 -0.0208,-0.587963 0.11644,-0.116443 0.21171,-0.02651 0.21171,0.199859 0,0.226366 0.15875,0.411574 0.35278,0.411574 0.19403,0 0.35278,-0.238125 0.35278,-0.529166 0,-0.291042 0.0664,-0.529167 0.14754,-0.529167 0.0811,0 0.39864,-0.09636 0.70555,-0.214132 0.39366,-0.15106 0.55802,-0.0073 0.55802,0.488022 0,0.429947 -0.30772,0.784618 -0.79375,0.91487 -1.09297,0.292906 -1.24737,0.27721 -1.51381,-0.153897 z M 20.879422,88.175073 c -0.449028,-0.180088 -0.733823,-0.461067 -0.632879,-0.624398 0.100944,-0.163331 -0.0079,-0.308412 -0.24192,-0.322402 -0.233999,-0.01399 -1.298578,-0.352221 -2.365731,-0.751625 -1.481578,-0.554511 -1.71585,-0.729197 -0.990959,-0.738915 0.522126,-0.007 1.041401,0.136265 1.153946,0.318366 0.112545,0.182102 0.515451,0.271235 0.895346,0.198073 0.379896,-0.07316 0.782801,0.01597 0.895346,0.198074 0.112545,0.182101 0.55681,0.331093 0.987256,0.331093 0.861784,0 2.350731,0.906465 2.350731,1.431115 0,0.413053 -0.969454,0.39444 -2.051136,-0.03938 z m -2.711364,-0.333401 c -0.119915,-0.194027 -0.557909,-0.352777 -0.973319,-0.352777 -0.564459,0 -0.653888,-0.101404 -0.353948,-0.401344 0.29994,-0.29994 0.696583,-0.212309 1.569861,0.346834 0.753999,0.48277 0.956901,0.750287 0.571976,0.754122 -0.328097,0.0033 -0.694654,-0.152807 -0.81457,-0.346835 z m -5.53547,-2.301674 c -0.101755,-0.101755 -0.96165,-0.462497 -1.91088,-0.801651 -2.7912943,-0.99731 -5.4292754,-2.635876 -5.4296787,-3.372612 -2.696e-4,-0.492333 0.1530342,-0.587557 0.6170024,-0.383246 0.3395486,0.149522 0.9593892,0.285569 1.3774237,0.302327 0.4180345,0.01676 0.6935418,0.138101 0.6122385,0.269653 -0.2212306,0.357958 1.2042015,0.727248 1.67766,0.434634 0.2405121,-0.148644 0.3158564,-0.100624 0.1819837,0.115986 -0.274401,0.44399 1.3814894,0.923442 1.9877504,0.57554 0.233612,-0.134058 0.31107,-0.11784 0.172129,0.03604 -0.26657,0.29523 1.176122,1.597226 1.769825,1.597226 0.59805,0 0.758559,0.989482 0.195555,1.205526 -0.66309,0.254452 -1.011405,0.260181 -1.251009,0.02058 z M 4.6548887,82.726395 c 0.00719,-0.582083 0.086254,-0.7775 0.1756981,-0.434258 0.089444,0.343241 0.083562,0.819491 -0.013072,1.058333 -0.096634,0.238842 -0.1698158,-0.04199 -0.1626261,-0.624075 z"
         id="path576" /><path
         style="fill:#b9b9b9;fill-opacity:1"
         d="m 59.675146,184.15 c 0,-0.48507 0.08007,-0.68351 0.177936,-0.44097 0.09786,0.24253 0.09786,0.63941 0,0.88194 -0.09786,0.24253 -0.177936,0.0441 -0.177936,-0.44097 z m 80.786104,-4.93889 c 0,-0.48507 0.0801,-0.68351 0.17794,-0.44097 0.0979,0.24253 0.0979,0.63941 0,0.88194 -0.0979,0.24254 -0.17794,0.0441 -0.17794,-0.44097 z M 4.6679605,80.786117 c 0,-0.679097 0.0726,-0.956909 0.1613333,-0.617361 0.088733,0.339549 0.088733,0.895174 0,1.234722 -0.088733,0.339549 -0.1613333,0.06174 -0.1613333,-0.617361 z M 59.20052,48.089577 c 0.254662,-0.101907 0.558933,-0.08937 0.676158,0.02785 0.117225,0.117225 -0.09113,0.200603 -0.463021,0.185286 -0.410966,-0.01693 -0.494559,-0.100521 -0.213137,-0.213137 z"
         id="path575" /><path
         style="fill:#a3a3a3;fill-opacity:1"
         d="m 59.675146,134.05556 c 0,-0.48507 0.08007,-0.68351 0.177936,-0.44097 0.09786,0.24253 0.09786,0.6394 0,0.88194 -0.09786,0.24253 -0.177936,0.0441 -0.177936,-0.44097 z M 49.797369,94.54445 c 0,-0.48507 0.08007,-0.683507 0.177936,-0.440973 0.09786,0.242535 0.09786,0.63941 0,0.881945 -0.09786,0.242534 -0.177936,0.0441 -0.177936,-0.440972 z M -5.9693665,80.227553 c 0.016928,-0.410966 0.1005206,-0.494559 0.2131366,-0.213137 0.1019071,0.254661 0.089374,0.558932 -0.027851,0.676157 -0.1172251,0.117225 -0.2006037,-0.09113 -0.1852856,-0.46302 z"
         id="path574" /><path
         style="fill:#8c8c8c;fill-opacity:1"
         d="m 8.1695944,148.16667 c 0,-0.48507 0.080071,-0.68351 0.1779361,-0.44097 0.097865,0.24253 0.097865,0.6394 0,0.88194 -0.097865,0.24253 -0.1779361,0.0441 -0.1779361,-0.44097 z"
         id="path573" /><path
         style="fill:#767676;fill-opacity:1"
         d="m 40.950074,150.07755 c 0.01693,-0.41097 0.100521,-0.49456 0.213137,-0.21314 0.101907,0.25466 0.08937,0.55893 -0.02785,0.67616 -0.117225,0.11722 -0.200604,-0.0911 -0.185286,-0.46302 z m 8.819444,-54.327776 c 0.01693,-0.410966 0.100521,-0.494559 0.213136,-0.213137 0.101908,0.254661 0.08938,0.558932 -0.02785,0.676157 -0.117226,0.117225 -0.200604,-0.09113 -0.185286,-0.46302 z"
         id="path572" /><path
         style="fill:#606060;fill-opacity:1"
         d="m 11.288892,220.30972 c 0,-0.29104 0.06239,-0.52917 0.138646,-0.52917 0.07625,0 0.230023,0.23813 0.341706,0.52917 0.111683,0.29104 0.04929,0.52916 -0.138646,0.52916 -0.187938,0 -0.341706,-0.23812 -0.341706,-0.52916 z M 169.6861,219.25138 c -0.60685,-0.3469 -0.70285,-0.50806 -0.30778,-0.51666 0.31579,-0.007 0.77179,0.22562 1.01334,0.51666 0.53711,0.64718 0.42657,0.64718 -0.70556,0 z m -1.5875,-0.88194 c -0.11991,-0.19403 0.0388,-0.35278 0.35278,-0.35278 0.31394,0 0.47269,0.15875 0.35278,0.35278 -0.11992,0.19403 -0.27867,0.35278 -0.35278,0.35278 -0.0741,0 -0.23286,-0.15875 -0.35278,-0.35278 z m -0.17098,-2.36043 c 0.004,-1.22541 0.10036,-1.54957 0.34737,-1.16735 0.44861,0.69417 0.44861,2.36858 0,2.64584 -0.21675,0.13396 -0.35069,-0.43611 -0.34737,-1.47849 z m -156.273449,-0.3442 c -0.0069,-0.42039 -0.210938,-0.83522 -0.453473,-0.92184 -0.242535,-0.0866 -0.32343,-0.28354 -0.179768,-0.43759 0.143662,-0.15406 0.570277,-0.13611 0.948033,0.0399 0.620996,0.28933 0.639425,0.40454 0.192269,1.20195 -0.472659,0.84289 -0.495114,0.84809 -0.507061,0.11759 z M 94.979064,200.025 c 0,-0.6791 0.0726,-0.95691 0.161334,-0.61736 0.08873,0.33954 0.08873,0.89517 0,1.23472 -0.08873,0.33955 -0.161334,0.0617 -0.161334,-0.61736 z M 59.647295,181.82754 c 0.01693,-0.41096 0.10052,-0.49455 0.213136,-0.21313 0.101908,0.25466 0.08938,0.55893 -0.02785,0.67616 -0.117226,0.11722 -0.200604,-0.0911 -0.185286,-0.46303 z m 80.854335,-58.70809 c 0,-0.87313 0.0688,-1.23032 0.15289,-0.79375 0.0841,0.43656 0.0841,1.15093 0,1.5875 -0.0841,0.43656 -0.15289,0.0794 -0.15289,-0.79375 z M 78.271666,30.074316 c -0.43881,-0.559525 -0.426332,-0.572003 0.133193,-0.133193 0.587639,0.460858 0.774516,0.750554 0.484168,0.750554 -0.07326,0 -0.351069,-0.277813 -0.617361,-0.617361 z"
         id="path571" /><path
         style="fill:#494949;fill-opacity:1"
         d="m 10.208749,219.68128 c -0.01199,-0.6245 -0.137202,-2.28639 -0.2782368,-3.69309 -0.141035,-1.4067 -0.2187747,-2.55764 -0.1727548,-2.55764 0.4114946,0 1.8866716,1.81518 1.8964136,2.33351 0.01053,0.5603 0.09623,0.52613 0.543883,-0.21684 0.409172,-0.67911 0.492052,-0.71968 0.360371,-0.17639 -0.499234,2.05974 -0.596943,4.04173 -0.232793,4.72215 0.486565,0.90916 -0.130574,1.03014 -0.655705,0.12854 -0.197769,-0.33955 -0.364407,-0.43591 -0.370307,-0.21413 -0.0059,0.22178 -0.248853,0.49461 -0.539894,0.60629 -0.400555,0.15371 -0.534468,-0.0729 -0.550977,-0.9324 z m 160.359301,-0.25351 c -0.35119,-0.38805 -0.94079,-0.70555 -1.31022,-0.70555 -0.36944,0 -0.57359,-0.15875 -0.45367,-0.35278 0.11991,-0.19403 -0.0388,-0.35278 -0.35278,-0.35278 -0.31394,0 -0.47269,0.15875 -0.35278,0.35278 0.11992,0.19403 -0.0264,0.35278 -0.32521,0.35278 -0.44367,0 -0.50303,-0.30713 -0.3239,-1.6757 0.2744,-2.09635 0.47272,-2.37128 0.47272,-0.65533 0,0.78639 0.14171,1.22676 0.35278,1.09631 0.45954,-0.28401 0.45248,-1.80037 -0.0124,-2.66903 -0.42703,-0.79791 0.0814,-0.9202 0.70448,-0.16945 0.69375,0.83592 2.8329,5.48431 2.52383,5.48431 -0.15638,0 -0.57166,-0.3175 -0.92284,-0.70556 z M 31.150161,183.09166 c 0,-1.06715 0.06613,-1.50371 0.146964,-0.97013 0.08083,0.53357 0.08083,1.4067 0,1.94027 -0.08083,0.53358 -0.146964,0.097 -0.146964,-0.97014 z m 109.388799,-9.17222 c 0,-2.23132 0.0573,-3.14413 0.12729,-2.02847 0.07,1.11566 0.07,2.94129 0,4.05695 -0.07,1.11565 -0.12729,0.20284 -0.12729,-2.02848 z m -0.0148,-11.28888 c 0,-1.45521 0.0623,-2.05053 0.13839,-1.32292 0.0761,0.7276 0.0761,1.91823 0,2.64583 -0.0761,0.72761 -0.13839,0.13229 -0.13839,-1.32291 z m -0.0498,-6.17362 c 0.007,-0.58208 0.0863,-0.77749 0.1757,-0.43425 0.0894,0.34324 0.0836,0.81949 -0.0131,1.05833 -0.0966,0.23884 -0.16982,-0.042 -0.16263,-0.62408 z M 85.440993,150.8125 c 0.0072,-0.58208 0.08625,-0.7775 0.175698,-0.43426 0.08944,0.34324 0.08356,0.81949 -0.01307,1.05834 -0.09663,0.23884 -0.169816,-0.042 -0.162628,-0.62408 z M 59.701289,135.81945 c 0,-0.6791 0.0726,-0.95691 0.161334,-0.61736 0.08873,0.33954 0.08873,0.89517 0,1.23472 -0.08873,0.33955 -0.161334,0.0617 -0.161334,-0.61736 z m -9.877777,-8.46667 c 0,-0.6791 0.0726,-0.95691 0.161334,-0.61736 0.08873,0.33955 0.08873,0.89517 0,1.23472 -0.08873,0.33955 -0.161334,0.0617 -0.161334,-0.61736 z m 90.678118,-1.41111 c 0,-0.87313 0.0688,-1.23031 0.15289,-0.79375 0.0841,0.43656 0.0841,1.15094 0,1.5875 -0.0841,0.43656 -0.15289,0.0794 -0.15289,-0.79375 z m 0,-5.64444 c 0,-0.87313 0.0688,-1.23032 0.15289,-0.79375 0.0841,0.43656 0.0841,1.15093 0,1.5875 -0.0841,0.43656 -0.15289,0.0794 -0.15289,-0.79375 z m -0.0404,-10.58334 c 0,-0.48507 0.0801,-0.6835 0.17794,-0.44097 0.0979,0.24254 0.0979,0.63941 0,0.88194 -0.0979,0.24254 -0.17794,0.0441 -0.17794,-0.44097 z m 42.0067,-2.11666 c 0,-0.6791 0.0726,-0.95691 0.16133,-0.61736 0.0887,0.33954 0.0887,0.89517 0,1.23472 -0.0887,0.33955 -0.16133,0.0617 -0.16133,-0.61736 z"
         id="path570" /><path
         style="fill:#333333;fill-opacity:1;opacity:0.818"
         d="m 87.841664,225.19639 c -1.067153,-0.27897 -3.310299,-1.13822 -4.98477,-1.90943 -1.674471,-0.77121 -5.246346,-2.33494 -7.9375,-3.47496 -7.272925,-3.08093 -26.665924,-11.96468 -33.115226,-15.16976 -3.104445,-1.54281 -7.311319,-3.55023 -9.348611,-4.46094 -2.037291,-0.91071 -6.244166,-2.8435 -9.34861,-4.29508 -3.104444,-1.45159 -6.993819,-3.19448 -8.643055,-3.87309 -1.649236,-0.67861 -4.265797,-1.88918 -5.8145809,-2.69015 -5.1492942,-2.66302 -8.62144027,-7.20082 -9.37711786,-12.25509 -0.20199794,-1.35104 -0.31776194,-16.41838 -0.28660894,-37.30377 l 0.0522622,-35.03726 -1.2643728,-1.29885 c -0.6954051,-0.71436 -1.709232,-2.25134 -2.2529487,-3.41551 L -5.4680507,97.895838 V 87.481991 77.068143 l 1.2011882,-2.440474 c 1.1839736,-2.405498 3.38513474,-4.91501 4.66831226,-5.322275 0.36128833,-0.114669 0.65688784,-0.35654 0.65688784,-0.537493 0,-0.180953 0.238125,-0.329005 0.5291667,-0.329005 0.2910416,0 0.5291666,-0.15875 0.5291666,-0.352778 0,-0.194027 0.238125,-0.352777 0.5291666,-0.352777 0.2910416,0 0.5291666,-0.15875 0.5291666,-0.352778 0,-0.194028 0.3061607,-0.352778 0.6803571,-0.352778 0.3741964,0 0.9184821,-0.238125 1.2095237,-0.529167 0.2910417,-0.291041 0.7504966,-0.529166 1.0210109,-0.529166 0.2705143,0 2.4646659,-0.803004 4.8758922,-1.784453 2.411227,-0.981449 4.661861,-1.873089 5.00141,-1.981422 0.339548,-0.108334 0.617361,-0.337205 0.617361,-0.508603 0,-0.171398 0.387506,-0.311633 0.861124,-0.311633 0.473619,0 0.955605,-0.152872 1.07108,-0.339715 0.115476,-0.186844 0.720157,-0.492281 1.343737,-0.67875 1.165538,-0.348531 6.727717,-2.70116 9.262083,-3.917574 0.784038,-0.376314 2.251048,-0.86125 3.26002,-1.077635 1.008973,-0.216386 1.924668,-0.539331 2.034878,-0.717655 0.11021,-0.178324 0.556139,-0.324226 0.990952,-0.324226 0.434812,0 0.941381,-0.135866 1.125707,-0.301924 0.375588,-0.338364 5.347815,-1.868645 8.184444,-2.518892 1.018646,-0.233506 1.852083,-0.610677 1.852083,-0.838158 0,-0.227481 -0.454766,-0.96571 -1.010592,-1.640508 -1.303914,-1.583013 -2.855225,-5.900071 -3.113312,-8.663865 -0.538559,-5.767308 2.622183,-12.022678 7.817238,-15.470959 2.524679,-1.675787 4.220131,-2.246133 7.924431,-2.665761 4.577602,-0.518558 8.923286,0.259599 12.194733,2.18364 1.358195,0.798798 3.047914,1.90365 3.754933,2.455227 0.707019,0.551578 1.379309,1.002869 1.493978,1.002869 0.34766,0 4.452477,3.961563 4.452477,4.297089 0,0.171897 0.555625,0.868165 1.234723,1.547262 0.679097,0.679097 1.234722,1.46197 1.234722,1.739718 0,0.277747 0.3175,0.674916 0.705555,0.882597 0.388056,0.207681 0.705556,0.615727 0.705556,0.906768 0,0.465362 0.892894,2.133464 1.402962,2.621009 0.673711,0.643962 4.241482,7.644165 4.241482,8.322068 0,0.232039 0.22343,0.507628 0.496512,0.612419 0.347901,0.133503 0.928642,-0.710055 1.940277,-2.818359 0.794071,-1.654888 1.443766,-3.219587 1.443766,-3.477107 0,-0.257521 0.396875,-0.939879 0.881944,-1.516351 0.48507,-0.576473 0.881945,-1.223653 0.881945,-1.438178 0,-0.214526 0.15875,-0.390047 0.352777,-0.390047 0.194028,0 0.352778,-0.238125 0.352778,-0.529167 0,-0.291041 0.166851,-0.529166 0.370779,-0.529166 0.203928,0 0.596806,-0.540959 0.873061,-1.20213 0.276255,-0.661171 0.864268,-1.494608 1.306696,-1.852083 0.442428,-0.357475 1.101827,-1.126204 1.465331,-1.708287 0.564001,-0.903145 2.161391,-2.526523 5.735241,-5.828555 0.41541,-0.383808 0.92346,-0.697833 1.129,-0.697833 0.20555,0 0.50067,-0.198438 0.65583,-0.440973 0.32155,-0.502608 4.41048,-2.527104 6.61737,-3.276361 5.28996,-1.795988 12.25129,-1.118191 16.5564,1.612029 0.908,0.575834 1.70609,1.046971 1.77354,1.046971 0.27226,0 3.02786,2.927273 3.02786,3.216503 0,0.171201 0.16132,0.311275 0.35849,0.311275 0.19716,0 0.60965,0.595312 0.91665,1.322916 0.30699,0.727605 0.80356,1.799167 1.10349,2.38125 0.76867,1.491776 0.97649,6.043155 0.41915,9.17987 -0.25781,1.451002 -0.59591,2.638185 -0.75132,2.638185 -0.15542,0 -0.28257,0.166418 -0.28257,0.369819 0,0.2034 -0.3175,1.026968 -0.70556,1.830151 -0.38805,0.803182 -0.70555,1.668638 -0.70555,1.923236 0,0.254598 -0.15875,0.462905 -0.35278,0.462905 -0.19403,0 -0.35278,0.39385 -0.35278,0.875223 0,0.661038 0.23742,0.934344 0.97014,1.116807 0.53358,0.132871 2.06354,0.691521 3.39991,1.241443 1.33637,0.549923 2.68575,1.000838 2.99861,1.002033 0.31286,0.0012 1.02355,0.23932 1.57931,0.529167 0.55575,0.289846 1.16676,0.526993 1.35779,0.526993 0.19103,0 0.88726,0.238125 1.54718,0.529166 2.21574,0.97721 3.46685,1.482242 9.13734,3.688457 3.10444,1.207845 6.04132,2.392211 6.52639,2.631924 0.48507,0.239714 1.55663,0.647665 2.38125,0.906558 0.82461,0.258893 1.4993,0.604055 1.4993,0.767026 0,0.162972 0.20842,0.296313 0.46315,0.296313 0.25472,0 1.28582,0.396875 2.29132,0.881944 1.0055,0.485069 2.22584,0.881944 2.71186,0.881944 0.48602,0 0.88367,0.122657 0.88367,0.27257 0,0.252699 2.03342,0.897708 4.32153,1.370809 0.53358,0.110324 0.97014,0.341322 0.97014,0.513328 0,0.172006 0.39687,0.312738 0.88194,0.312738 0.48507,0 0.88195,0.146438 0.88195,0.325419 0,0.17898 0.52975,0.500254 1.17723,0.713942 2.53153,0.83548 4.91443,5.03129 5.54839,9.769618 0.20406,1.52513 0.32208,6.582964 0.26228,11.23963 -0.10666,8.304525 -0.12648,8.503823 -1.03538,10.40694 -0.50965,1.06716 -1.4968,2.49591 -2.19366,3.175 l -1.26702,1.23473 0.0119,23.81249 c 0.007,13.09688 0.13279,29.6702 0.28059,36.82961 0.1478,7.1594 0.14121,13.8238 -0.0147,14.80976 -0.15586,0.98596 -0.77132,2.7838 -1.36769,3.99519 -1.59707,3.24413 -4.48115,5.34029 -10.57417,7.6854 -8.22229,3.16462 -14.50802,5.77078 -20.10834,8.33721 -3.39548,1.55604 -7.04673,3.20342 -8.11388,3.66085 -1.06716,0.45743 -3.84528,1.69864 -6.17362,2.75825 -2.32833,1.0596 -4.6302,2.04388 -5.11527,2.18727 -1.5244,0.45065 -9.84205,4.02577 -15.16945,6.52019 -2.8134,1.31731 -6.46465,2.95157 -8.11388,3.6317 -1.64924,0.68013 -5.09595,2.19868 -7.65936,3.37456 -6.890089,3.16061 -9.45548,3.77785 -12.448976,2.99529 z m -2.177268,-49.06731 c -0.114786,-37.32853 -0.12189,-37.6554 -0.821343,-37.78758 -0.670333,-0.12668 -7.213496,-2.77037 -14.11111,-5.70143 -7.667268,-3.25811 -10.07591,-4.22895 -10.491888,-4.22892 -0.354282,4e-5 -0.444222,7.47886 -0.444222,36.93877 v 36.93872 l 3.704166,1.64409 c 7.365947,3.26936 14.707927,6.60835 17.991665,8.18225 1.843264,0.88347 3.562243,1.62028 3.819954,1.63733 0.38751,0.0257 0.448535,-6.48262 0.352778,-37.62323 z m 12.236414,36.2852 c 0.9674,-0.36493 2.9912,-1.23495 4.49734,-1.93338 1.50614,-0.69844 4.44302,-1.97103 6.52639,-2.82798 2.08338,-0.85695 5.30886,-2.26711 7.16775,-3.13369 1.85888,-0.86657 4.21909,-1.85436 5.2449,-2.19508 l 1.86511,-0.61949 -0.21105,-2.33914 c -0.11608,-1.28652 -0.24612,-17.93632 -0.28898,-36.99955 -0.0744,-33.08219 -0.10677,-34.66041 -0.71143,-34.66041 -0.61538,0 -15.23549,5.73687 -20.92001,8.20893 -1.552223,0.67502 -3.536597,1.49182 -4.409722,1.81511 l -1.5875,0.58779 -0.03236,37.38019 c -0.02952,34.10005 0.01735,37.38019 0.534147,37.38019 0.311578,0 1.358013,-0.29857 2.325413,-0.66349 z M 50.094445,143.79349 V 90.736984 l 1.241192,-1.089781 c 1.983356,-1.74141 2.416782,-1.71853 8.17516,0.431551 8.893352,3.320629 16.710802,6.415501 20.393368,8.073589 1.940277,0.873617 5.160861,2.185277 7.156853,2.914807 l 3.629075,1.3264 3.955646,-1.50869 c 2.175606,-0.82978 7.527521,-2.971062 11.893141,-4.75841 7.17797,-2.938761 10.52892,-4.145694 18.16806,-6.543699 1.35819,-0.426352 2.8594,-0.823379 3.33601,-0.882283 1.13118,-0.139802 2.66589,0.785261 3.2078,1.933536 0.80097,1.697193 1.11163,12.055446 0.91785,30.603556 -0.10574,10.12155 -0.0957,31.27499 0.0223,47.00763 l 0.21456,28.60481 h 0.77171 c 0.42444,0 2.26415,-0.62493 4.08824,-1.38874 l 3.31653,-1.38873 0.0489,-49.32307 c 0.0269,-27.12769 -0.0303,-50.617884 -0.12717,-52.200439 l -0.17604,-2.877372 -1.63672,-0.614643 c -0.9002,-0.338054 -3.19438,-1.39119 -5.0982,-2.340302 -1.90381,-0.949113 -5.71381,-2.442566 -8.46666,-3.318786 C 111.26853,78.987149 99.867184,74.755282 92.715363,71.367969 l -2.711022,-1.28402 -1.221805,0.931916 c -2.448764,1.867764 -20.109011,8.436519 -35.336703,13.143538 -4.173413,1.290041 -5.794952,1.992354 -9.090959,3.937431 -1.754507,1.035389 -2.79559,1.883613 -2.892754,2.356876 -0.08349,0.406643 -0.216824,23.71748 -0.296304,51.80185 -0.114398,40.42239 -0.05309,51.13837 0.294213,51.42661 0.875431,0.72654 6.718755,3.12531 7.664277,3.1463 l 0.970139,0.0215 z M 156.78074,186.7408 c 2.34427,-1.07368 6.28408,-2.80416 8.75514,-3.84551 4.84012,-2.03973 7.25747,-3.29961 7.40735,-3.86057 0.0518,-0.19403 0.0487,-16.02934 -0.007,-35.18958 l -0.10126,-34.8368 h -0.75274 c -0.414,0 -3.78156,1.19546 -7.48347,2.65657 -3.7019,1.46112 -8.43879,3.32643 -10.52643,4.14514 l -3.7957,1.48856 0.15364,26.63472 c 0.0845,14.6491 0.16538,30.81912 0.17973,35.93338 l 0.0261,9.29866 0.94117,-0.23621 c 0.51764,-0.12992 2.8592,-1.11468 5.20347,-2.18836 z M 31.397224,152.95814 v -35.42519 l -2.910416,-0.95398 c -1.600729,-0.52469 -4.418542,-1.55401 -6.261805,-2.28738 -8.378165,-3.33337 -13.3592543,-5.28325 -13.4963647,-5.28325 -0.339551,0 -0.5674923,29.77946 -0.3685871,48.15416 l 0.213853,19.75555 1.2107456,1.1508 c 0.6659102,0.63293 2.5070952,1.77209 4.0915212,2.53145 11.411108,5.46896 16.36984,7.74636 16.903692,7.76337 0.583995,0.0186 0.617361,-1.89495 0.617361,-35.40553 z m 54.327773,-33.55393 c 0,-7.92588 -0.05195,-8.67201 -0.617361,-8.86666 -0.749558,-0.25803 -17.464509,-7.0887 -21.492431,-8.783 -1.585873,-0.66708 -3.133685,-1.21288 -3.439583,-1.21288 -0.490846,0 -0.556178,0.98878 -0.556178,8.41757 v 8.41758 l 2.754266,1.25901 c 1.514846,0.69245 4.729533,2.05142 7.143749,3.01993 2.414216,0.9685 6.464433,2.70879 9.000482,3.8673 4.611808,2.10675 5.433285,2.4177 6.589695,2.49435 0.572298,0.0379 0.617361,-0.59077 0.617361,-8.6132 z m 15.907023,6.00575 c 4.89887,-2.15429 9.91428,-4.14548 18.07587,-7.17638 l 3.46763,-1.28774 -0.12268,-8.35552 c -0.0675,-4.59553 -0.23188,-8.46472 -0.36536,-8.598201 -0.13348,-0.133479 -1.87683,0.397391 -3.87412,1.179711 -1.99728,0.78232 -5.6158,2.14222 -8.04114,3.02201 -2.42535,0.87979 -6.87035,2.68657 -9.87778,4.01507 l -5.468054,2.41545 -0.09447,8.5406 c -0.08594,7.76938 -0.04144,8.5406 0.492724,8.5406 0.322955,0 2.936274,-1.03302 5.80738,-2.2956 z M 31.397224,99.708965 c 0,-3.950489 -0.09727,-7.892344 -0.216148,-8.759679 l -0.216148,-1.576971 -3.047046,-0.98909 c -1.675876,-0.543999 -5.031421,-1.78186 -7.456768,-2.750802 -2.425347,-0.968942 -5.997222,-2.372645 -7.9375,-3.11934 C 10.583337,81.766388 8.0848723,80.726548 6.9714709,80.202328 5.8580696,79.678109 4.8530936,79.343213 4.7381909,79.458116 4.5130594,79.683247 4.010149,86.884365 3.820815,92.593919 l -0.1166443,3.517525 1.9402777,0.959486 c 1.0671527,0.527718 5.5915276,2.409684 10.0541656,4.18215 4.462639,1.77246 9.383888,3.76365 10.93611,4.42486 1.552223,0.66122 3.258785,1.2048 3.792361,1.20797 l 0.970139,0.006 z m 125.320916,4.912625 c 2.76676,-1.05452 7.57046,-2.97298 10.67491,-4.26324 3.10444,-1.290255 6.51757,-2.69796 7.58472,-3.12823 l 1.94028,-0.782309 v -8.331159 c 0,-4.582137 -0.12513,-8.456035 -0.27805,-8.608662 -0.15293,-0.152627 -0.70855,-0.09895 -1.23472,0.119293 -0.52617,0.218239 -3.57605,1.429055 -6.77751,2.690703 -3.20146,1.261648 -7.17021,2.838241 -8.81945,3.503539 -1.64923,0.665299 -4.42736,1.727942 -6.17361,2.361429 l -3.175,1.151794 -0.003,8.602073 c -0.002,7.954589 0.0437,8.602069 0.61399,8.602069 0.33917,0 2.88037,-0.86279 5.64712,-1.9173 z M 36.952059,80.577523 c 2.587329,-1.516276 6.049813,-2.846758 18.78683,-7.218964 14.963473,-5.136476 20.522976,-7.336493 20.382523,-8.065809 -0.06897,-0.358147 -1.818717,-0.998381 -5.443448,-1.991766 -5.386875,-1.476315 -10.890715,-3.434951 -13.957209,-4.966912 -0.915181,-0.457208 -1.99945,-0.831286 -2.409486,-0.831286 -1.100278,0 -8.680244,2.806312 -14.27099,5.283514 -0.970139,0.429858 -4.145139,1.696174 -7.055555,2.814036 -2.910416,1.117862 -6.958541,2.749232 -8.995833,3.625268 -2.037291,0.876036 -4.537603,1.882515 -5.556249,2.236621 -1.018646,0.354105 -1.852083,0.849368 -1.852083,1.100585 0,0.548822 7.067055,4.143576 12.044347,6.126522 1.966596,0.78349 4.148947,1.727519 4.849668,2.097842 1.641008,0.867255 1.639754,0.867331 3.477485,-0.209651 z M 147.88902,80.047379 c 1.02582,-0.406306 3.29389,-1.251801 5.04014,-1.878877 4.921,-1.767129 11.81805,-4.90138 11.81805,-5.370522 0,-0.232358 -0.51593,-0.53018 -1.14652,-0.661827 -0.63059,-0.131648 -3.68653,-1.284467 -6.79098,-2.561821 -3.10444,-1.277354 -8.18444,-3.306429 -11.28888,-4.509056 -13.21502,-5.119348 -17.81528,-7.084791 -17.81528,-7.611513 0,-0.646257 -1.53372,-0.238019 -5.36558,1.428184 -3.82966,1.665249 -6.51447,2.671141 -13.62071,5.103132 -3.06566,1.049173 -3.24433,1.162413 -2.64583,1.676901 0.85101,0.731557 3.96412,1.941019 13.51823,5.251925 4.36563,1.512875 10.95375,3.935135 14.64028,5.382801 10.44951,4.103427 11.27239,4.421186 11.54041,4.456382 0.13834,0.01817 1.09084,-0.299403 2.11667,-0.705709 z M 83.255553,56.53017 c 0,-0.787889 -3.211412,-7.353634 -4.227337,-8.642808 -0.965128,-1.224715 -2.338543,-2.039324 -2.014486,-1.194847 0.372546,0.97084 -1.826348,2.84634 -4.606093,3.928669 -3.553616,1.383645 -3.43643,1.845308 0.881945,3.474474 3.381566,1.275743 8.659245,2.948286 9.524999,3.018557 0.242535,0.01969 0.440972,-0.243134 0.440972,-0.584045 z M 102.21,56.061589 c 4.39662,-1.2594 10.32611,-3.929783 10.32611,-4.650426 0,-0.582416 -0.74504,-0.987038 -4.05695,-2.203284 -1.35819,-0.498775 -3.07885,-1.308668 -3.82367,-1.799761 -1.51725,-1.000382 -2.04278,-0.932627 -2.89874,0.37373 -0.74356,1.134824 -3.684531,8.221541 -3.684531,8.878451 0,0.626175 -0.279539,0.666623 4.137781,-0.59871 z M 62.845733,46.895827 c 1.713046,-0.789105 3.299951,-1.320202 3.526455,-1.180215 0.247,0.152655 0.317363,0.10168 0.175807,-0.127364 -0.132251,-0.213986 0.112557,-0.49252 0.556811,-0.63352 0.436056,-0.138399 1.962823,-0.792065 3.392814,-1.45259 1.429992,-0.660526 3.059899,-1.292938 3.622015,-1.405362 0.562117,-0.112423 1.02203,-0.368335 1.02203,-0.568694 0,-0.7419 -2.866438,-4.046032 -5.014729,-5.78046 -2.690084,-2.171846 -4.522587,-3.129056 -7.403068,-3.867001 -2.609477,-0.668517 -4.593706,-0.469559 -7.195244,0.721464 -4.282905,1.960779 -5.268801,7.093629 -2.154269,11.215729 1.04164,1.378617 5.225952,4.51275 6.024873,4.51275 0.182531,0 1.733458,-0.645631 3.446505,-1.434737 z m 60.802877,0.422637 c 0.58208,-0.361177 1.86014,-1.432558 2.84013,-2.380847 2.10869,-2.04048 2.79318,-3.96143 2.56004,-7.184526 -0.13323,-1.84195 -0.31818,-2.301193 -1.36602,-3.392085 -1.99092,-2.0727 -3.40339,-2.610996 -6.85114,-2.610996 -4.88474,0 -8.78884,1.799699 -12.79343,5.897479 -2.7186,2.781863 -2.61238,3.072202 1.94493,5.316091 4.82665,2.376504 10.98803,4.959133 11.9016,4.988719 0.38805,0.01257 1.1818,-0.272658 1.76389,-0.633835 z M 3.3439778,221.52347 c -1.4020746,-0.40798 -3.59249168,-2.43941 -3.88439596,-3.60245 -0.1732383,-0.69023 0.003552,-1.23092 0.70180401,-2.14638 1.14910525,-1.50656 2.85515615,-2.21884 6.03906445,-2.52135 3.4096951,-0.32396 3.5561045,-0.16023 3.8601937,4.31682 l 0.245224,3.61038 -0.9425647,0.35836 c -1.1248848,0.42769 -4.5265584,0.41899 -6.0193255,-0.0154 z m 10.1748852,-0.0456 c -1.060614,-0.51277 -1.652922,-2.11364 -1.376325,-3.7199 0.531051,-3.08394 0.604957,-3.26908 1.305015,-3.26908 0.380319,0 1.76976,-1.0127 3.087646,-2.25045 1.317886,-1.23775 2.732418,-2.35718 3.143404,-2.48762 1.514532,-0.48069 4.127225,1.6179 4.531634,3.63994 0.221666,1.10833 0.06376,1.32762 -3.480777,4.83374 -3.456506,3.41903 -3.80723,3.67108 -5.077468,3.64885 -0.750469,-0.0131 -1.710377,-0.1911 -2.133129,-0.39548 z m 160.853647,-0.43935 c -2.37484,-0.57555 -2.60143,-0.78795 -3.94111,-3.69442 -1.07354,-2.32908 -1.96621,-3.51578 -2.3534,-3.12858 -0.099,0.099 -0.33988,1.17307 -0.53536,2.38689 -0.34706,2.15503 -0.83261,2.91073 -2.49471,3.88273 -0.74661,0.43662 -4.69992,-1.51733 -5.88652,-2.90944 -0.4548,-0.53358 -1.02632,-0.97014 -1.27005,-0.97014 -0.72912,0 -1.61081,-1.22467 -1.61081,-2.23742 0,-1.36955 1.25074,-3.40702 2.09147,-3.40702 0.20788,0 0.37797,-0.1213 0.37797,-0.26956 0,-0.14826 0.63979,-0.54673 1.42175,-0.8855 1.29311,-0.56022 1.5162,-0.56711 2.46567,-0.0761 0.57416,0.29691 1.84312,1.24963 2.8199,2.11716 l 1.77598,1.57731 4.66599,-0.21329 c 4.21366,-0.19261 4.85736,-0.14053 6.64012,0.53726 1.99006,0.7566 2.78837,1.68007 2.78837,3.22554 0,0.93136 -2.37939,3.50851 -3.78103,4.09529 -0.62436,0.26138 -1.17999,0.46174 -1.23472,0.44524 -0.0547,-0.0165 -0.92752,-0.23067 -1.93951,-0.47593 z m -0.1003,-163.215674 c -2.02985,-0.394081 -7.19526,-2.164644 -7.34953,-2.519226 -0.0647,-0.148648 -0.34212,-0.270268 -0.61655,-0.270268 -1.28378,0 -7.34575,-5.296004 -8.40369,-7.341829 -0.30995,-0.599373 -0.76198,-1.216722 -1.00452,-1.371887 -0.44617,-0.285433 -2.17649,-3.689321 -3.19202,-6.279339 -1.69127,-4.313398 -1.95601,-10.522976 -0.6465,-15.163605 0.93678,-3.319761 4.2574,-9.839984 5.51517,-10.829347 0.48454,-0.381138 0.88098,-0.884299 0.88098,-1.118137 0,-0.414794 1.21452,-1.640297 1.62559,-1.640297 0.11353,0 0.91097,-0.620177 1.7721,-1.3781702 2.10301,-1.85114 6.4273,-4.0554891 9.85144,-5.021857 4.20632,-1.187121 10.21655,-1.1141131 14.13719,0.1717282 4.64986,1.5250032 10.16625,5.431034 13.41929,9.501886 3.11679,3.900358 4.88095,7.825623 5.76802,12.833898 1.92977,10.89512 -4.42265,22.805013 -14.89398,27.924141 -1.9986,0.977058 -4.67584,2.026522 -5.94942,2.332142 -2.50279,0.600594 -8.23604,0.689988 -10.91357,0.170167 z m 7.92731,-10.602823 c 0.93358,-1.109502 0.9344,-1.115916 0.86437,-6.790971 l -0.0701,-5.680421 5.61993,0.127222 5.61993,0.127222 1.11978,-0.942238 c 1.87081,-1.574181 1.97191,-4.336985 0.2227,-6.086186 l -0.89238,-0.892384 -5.77235,0.139347 -5.77235,0.139346 -0.11189,-5.36282 c -0.10548,-5.055428 -0.1591,-5.413012 -0.93552,-6.23848 -1.19644,-1.272033 -2.88743,-1.48655 -4.64601,-0.589388 -0.80303,0.409675 -1.58745,1.126787 -1.77652,1.624081 -0.18621,0.489769 -0.33856,3.023279 -0.33856,5.630023 v 4.739533 l -1.6757,0.0791 c -0.92163,0.04351 -3.5529,0.08319 -5.84727,0.08819 l -4.17157,0.0091 -1.0319,1.152094 c -1.61072,1.798341 -1.30692,4.343362 0.7158,5.996356 0.39742,0.324778 2.07648,0.426627 6.1898,0.375461 l 5.64445,-0.07021 0.17639,5.445372 c 0.11067,3.416679 0.34169,5.734345 0.62009,6.221029 0.72709,1.271079 1.89967,1.870175 3.66037,1.870175 1.42202,0 1.78512,-0.15578 2.58851,-1.110551 z"
         id="path569" /><path
         style="opacity:0;fill:#2b0000;fill-opacity:1;stroke-width:0.529167"
         d="M 64.4151,212.89348 C 53.835794,208.32073 42.5279,203.13351 21.552601,193.23135 15.877289,190.55211 7.8495405,186.85723 3.7131606,185.0205 c -10.8578275,-4.82133 -13.453442,-6.83897 -15.9889716,-12.42865 -1.044776,-2.30325 -1.073639,-3.33936 -1.084952,-38.9462 -0.01043,-32.82438 -0.09825,-36.651872 -0.855373,-37.280229 -0.464063,-0.385137 -1.533391,-1.902558 -2.376284,-3.372039 l -1.532533,-2.671825 -0.005,-10.203993 c -0.0047,-9.768622 0.05003,-10.312531 1.283967,-12.747587 2.145911,-4.234754 6.369487,-7.323995 13.527728,-9.894557 2.1828108,-0.78386 5.1593718,-1.968399 6.6145789,-2.632313 8.0217161,-3.659764 14.9655121,-6.37322 21.8784051,-8.549507 4.265208,-1.342758 7.959227,-2.619934 8.208933,-2.838167 0.249703,-0.218234 -0.345609,-2.022523 -1.322916,-4.00953 -1.599415,-3.25183 -1.775767,-4.062857 -1.765319,-8.118491 0.0094,-3.650446 0.239763,-4.937186 1.213543,-6.778554 1.748703,-3.306704 4.414205,-6.043687 7.610055,-7.814132 2.628026,-1.455883 3.176545,-1.554732 8.627295,-1.554732 5.121163,0 6.107059,0.152067 8.202083,1.265108 4.816549,2.558928 8.558837,5.48944 11.384142,8.914688 2.793349,3.386519 7.262235,10.736527 8.691016,14.294162 0.379877,0.945886 1.001694,1.719792 1.381801,1.719792 0.567497,0 3.413792,-5.042207 3.413792,-6.047507 0,-0.454626 4.629593,-7.105967 6.731171,-9.67068 2.601195,-3.174436 7.910455,-7.29819 11.610754,-9.018189 2.734684,-1.27116 3.726844,-1.437179 8.645454,-1.446662 5.21399,-0.01005 5.75183,0.09174 8.73125,1.652534 3.55425,1.861913 5.97018,4.259524 7.69105,7.632712 1.00801,1.975866 1.1278,2.892558 0.92388,7.070455 -0.19083,3.90982 -0.51112,5.353289 -1.72664,7.781624 -0.82079,1.639755 -1.35895,3.329 -1.1959,3.753879 0.16304,0.424878 1.80645,1.306568 3.65202,1.959311 5.67019,2.00543 23.80362,9.108273 27.281,10.685931 1.80835,0.820435 3.95148,1.650322 4.7625,1.844193 0.81103,0.193873 1.71272,0.536477 2.00376,0.761344 0.29104,0.224867 1.42476,0.576215 2.51939,0.780772 1.09462,0.20456 2.1207,0.583054 2.28018,0.841102 0.15949,0.258049 0.63645,0.469181 1.05991,0.469181 1.53793,0 4.45633,2.436847 5.74565,4.797583 1.89839,3.475922 2.59673,8.97823 2.28353,17.992219 -0.28555,8.218205 -0.61985,9.458996 -3.33722,12.386491 l -1.46135,1.574351 0.36173,37.861702 0.36172,37.86172 -1.46719,2.89362 c -2.04427,4.03175 -4.44157,5.62194 -14.60671,9.68901 -4.82296,1.92967 -14.38069,6.01786 -21.2394,9.08486 -6.8587,3.06701 -14.19271,6.26769 -16.2978,7.11262 -2.10509,0.84494 -9.78057,4.19955 -17.056594,7.4547 -16.195257,7.24546 -19.318219,8.45396 -21.840074,8.45158 -1.309344,-0.001 -5.61853,-1.57791 -12.820156,-4.69072 z m 8.458536,-43.85846 c -0.004,-20.59119 -0.18305,-37.7041 -0.396867,-38.02867 -0.21383,-0.32458 -0.934827,-0.7606 -1.602221,-0.96895 -0.667387,-0.20834 -6.001501,-2.38356 -11.853582,-4.83382 -5.852086,-2.45026 -10.961502,-4.45501 -11.35426,-4.45501 -0.592603,0 -0.714105,6.3414 -0.714105,37.27059 v 37.27058 l 1.13884,0.36146 c 0.626364,0.1988 6.281833,2.71018 12.567709,5.58084 6.28588,2.87065 11.607439,5.22436 11.825716,5.23045 0.21828,0.006 0.39323,-16.83627 0.38877,-37.42747 z m 24.614199,30.76329 12.699985,-5.46813 0.13169,-2.52726 c 0.0724,-1.39 -0.0466,-18.12446 -0.26459,-37.18769 -0.39158,-34.25089 -0.40877,-34.65849 -1.4546,-34.49753 -0.58208,0.0896 -6.83189,2.47084 -13.88844,5.29167 l -12.830065,5.12878 -0.002,36.04948 c -10e-4,19.82721 0.147907,36.79982 0.331327,37.71691 0.411437,2.05722 -0.790404,2.41174 15.276843,-4.50623 z M 37.427601,136.39739 V 83.254656 l 1.446858,-1.138094 c 1.016122,-0.799274 1.885743,-1.050314 2.921095,-0.843244 1.627029,0.325407 18.146681,6.655791 28.339227,10.859677 3.582369,1.477554 7.006121,2.686445 7.608358,2.686445 0.602214,0 7.077068,-2.360675 14.388556,-5.24595 13.781155,-5.43835 21.206335,-7.983135 23.293095,-7.983135 0.66747,0 1.66721,0.501017 2.22164,1.113384 0.97175,1.073284 1.01992,2.955625 1.33736,52.255091 0.18112,28.128 0.35971,51.91572 0.39687,52.86161 0.0832,2.11698 0.57034,2.14959 5.0891,0.3406 l 3.44515,-1.37918 -0.0148,-52.46352 -0.0148,-52.463405 -4.08628,-1.775451 C 121.55165,79.10299 113.7597,76.219795 106.48366,73.67239 95.277097,69.748862 90.411127,67.873177 78.687343,62.957807 c -1.135334,-0.47601 -2.017288,-0.23535 -5.820787,1.588309 -4.892513,2.345814 -19.927054,7.871453 -29.717653,10.922105 -6.319806,1.969198 -13.028178,4.98926 -14.188776,6.387684 -0.886761,1.068484 -1.093091,103.622135 -0.210264,104.507955 0.776203,0.77882 6.580772,3.14793 7.751696,3.16381 0.875882,0.0119 0.926042,-2.86604 0.926042,-53.13028 z m 109.747229,41.69898 c 4.39568,-1.9285 9.12325,-4.07563 10.5057,-4.77141 l 2.51354,-1.26506 v -35.44525 c 0,-33.40949 -0.0532,-35.44451 -0.92604,-35.43243 -1.2861,0.0178 -21.82467,8.09727 -21.82658,8.58614 -7.9e-4,0.21828 -0.002,16.47031 -0.002,36.11562 0,32.81147 0.0709,35.71875 0.87138,35.71875 0.47926,0 4.46785,-1.57786 8.86354,-3.50636 z m -128.607708,0.99282 c 0.180398,-1.09141 0.330618,-17.1457 0.333822,-35.67622 l 0.0058,-33.69185 -2.778125,-0.91086 c -1.527969,-0.50097 -6.6821504,-2.4303 -11.4537337,-4.2874 -4.77158421,-1.8571 -8.819707,-3.23234 -8.9958287,-3.05611 -0.176121,0.17624 -0.320221,15.51555 -0.320221,34.08735 0,32.21951 0.04526,33.81692 0.9877053,34.8582 0.5432388,0.60021 3.28167419,2.21532 6.0854136,3.58914 6.1330934,3.00517 15.0246875,7.06601 15.4795115,7.06956 0.1802,0.001 0.475234,-0.8904 0.655632,-1.98181 z m 54.314614,-67.27024 v -8.92962 L 60.458474,97.796045 c -6.832817,-2.801295 -12.6414,-5.093253 -12.907973,-5.093253 -0.924031,0 -1.127067,1.712471 -1.127067,9.506098 v 7.83211 l 12.303125,5.31518 c 6.766719,2.92336 12.719823,5.33256 13.22914,5.35379 0.846887,0.0353 0.926037,-0.7247 0.926037,-8.89102 z m 23.231188,3.44312 c 6.868056,-2.72654 12.904116,-5.10031 13.413436,-5.27507 0.83032,-0.28488 0.92605,-1.19629 0.92605,-8.8176 0,-6.721527 -0.15214,-8.558208 -0.7272,-8.778885 -0.78728,-0.3021 -14.71216,4.816593 -22.341928,8.212775 l -4.712023,2.09744 -0.145087,8.75934 c -0.10671,6.44253 0.0195,8.75933 0.477157,8.75933 0.342227,0 6.241544,-2.2308 13.109595,-4.95733 z M 18.844159,92.041338 C 18.752939,81.055138 19.145171,81.837415 12.556768,79.501437 9.5008303,78.417933 3.5904659,76.159608 -0.57737891,74.482917 -4.7452225,72.806236 -8.2706813,71.549812 -8.4117304,71.690862 -8.55278,71.831912 -8.810757,75.780708 -8.9850121,80.465971 l -0.3168286,8.518652 2.0657668,0.879307 c 9.8625341,4.198026 23.9885409,9.691213 24.9522169,9.703183 1.1826,0.0147 1.190204,-0.036 1.128016,-7.525775 z m 133.147831,2.091078 12.17083,-4.904683 0.1316,-8.184295 c 0.0724,-4.501353 -0.0809,-8.514522 -0.34056,-8.918129 -0.38091,-0.592037 -2.9627,0.2419 -13.36076,4.315576 l -12.88861,5.04941 -0.14509,8.781222 -0.14508,8.781219 1.20342,-0.008 c 0.66188,-0.004 6.68029,-2.214938 13.37425,-4.91251 z M 26.39247,72.338919 C 28.53273,71.325185 35.998851,68.492578 42.983851,66.04424 62.700346,59.133339 64.262404,58.457704 63.092184,57.346822 62.801142,57.070539 60.062705,56.083196 57.006767,55.152731 53.95083,54.222262 49.332872,52.620716 46.744633,51.593733 43.321491,50.235473 41.552,49.805486 40.25306,50.016274 38.404342,50.31628 5.3939497,63.385207 4.2223963,64.280935 c -1.0408304,0.795784 -0.8148594,1.15298 1.5874991,2.509385 2.1906288,1.236861 15.6669396,7.306147 16.3492416,7.363167 0.188074,0.0157 2.093074,-0.800844 4.233333,-1.814568 z m 115.35879,-2.050323 c 4.76922,-1.827964 10.50531,-4.56732 10.50531,-5.016974 0,-0.201962 -6.60797,-2.962219 -14.68437,-6.133907 -8.07641,-3.171684 -16.68682,-6.705017 -19.13425,-7.851846 l -4.44987,-2.085144 -5.60429,2.245032 c -3.08237,1.234768 -7.55409,2.906426 -9.937151,3.7148 -6.247344,2.119193 -6.467061,2.27765 -4.733413,3.413591 0.778527,0.510116 7.185034,3.013948 14.236704,5.564068 7.05167,2.55012 15.53511,5.709298 18.85207,7.020389 l 6.03086,2.383805 2.70039,-0.952794 c 1.48523,-0.524037 4.28333,-1.559491 6.21801,-2.30102 z M 70.521878,48.385202 c -0.527747,-2.145538 -4.13006,-8.669581 -5.13809,-9.305427 -0.691256,-0.436033 -1.153377,-0.213574 -2.24072,1.078658 -0.753422,0.895393 -2.331201,2.012641 -3.506173,2.482771 -2.036858,0.814988 -3.144091,2.099133 -2.427669,2.815553 0.519912,0.519914 11.585571,4.315095 12.687185,4.351316 0.810597,0.02665 0.920507,-0.223385 0.625467,-1.422871 z m 20.277306,-0.108074 c 5.736097,-1.87448 9.069889,-3.503605 9.069889,-4.432178 0,-0.375259 -2.184108,-1.679911 -4.853573,-2.89923 -4.421576,-2.019623 -4.934073,-2.144094 -5.758007,-1.398442 -0.977234,0.884391 -4.204996,8.166864 -4.204996,9.487307 0,1.077688 0.219497,1.048755 5.746687,-0.757457 z M 49.928041,39.732182 c 1.419448,-0.611817 3.874236,-1.710825 5.455084,-2.442239 1.580854,-0.731414 3.723979,-1.623748 4.7625,-1.982962 2.866951,-0.991651 2.673461,-2.106245 -0.982911,-5.661957 -4.004485,-3.894246 -7.719367,-5.721551 -11.64617,-5.72861 -9.521782,-0.01712 -12.297251,8.833242 -4.66262,14.868073 3.008842,2.37835 3.578024,2.4546 7.074117,0.947695 z m 62.553789,-0.879234 c 2.78048,-2.057512 3.78717,-4.149659 3.78943,-7.875429 0.002,-3.05185 -0.11156,-3.352168 -1.83879,-4.868691 -4.51705,-3.966016 -12.91984,-2.489065 -18.963203,3.33315 -1.491971,1.437383 -2.478735,2.828356 -2.381235,3.356679 0.174997,0.948221 9.352068,5.744284 13.660208,7.138992 2.67979,0.86755 3.23809,0.761929 5.73359,-1.084701 z"
         id="path577-2" /><path
         style="fill:#d0d0d0;fill-opacity:1"
         d="m 82.156162,141.77364 c 0.11185,-0.29148 0.420987,-0.44645 0.686967,-0.34439 0.265987,0.10207 0.843794,-0.0667 1.284011,-0.37505 0.44023,-0.30835 1.040547,-0.56063 1.334054,-0.56063 0.580417,0 -1.435341,1.15831 -2.716875,1.56119 -0.616667,0.19387 -0.746594,0.13177 -0.588157,-0.28112 z m -26.732203,-4.69606 c 0.254662,-0.1019 0.558932,-0.0894 0.676158,0.0279 0.117225,0.11723 -0.09113,0.20061 -0.463021,0.18529 -0.410966,-0.0169 -0.494559,-0.10052 -0.213137,-0.21314 z m -6.481011,-2.39362 c -0.376633,-0.28487 -0.526037,-0.51795 -0.332009,-0.51795 0.194028,0 0.660932,0.23308 1.037565,0.51795 0.376633,0.28487 0.526037,0.51794 0.33201,0.51794 -0.194028,0 -0.660932,-0.23307 -1.037566,-0.51794 z m -1.566731,-0.54039 c -0.317956,-0.20548 -0.361468,-0.34413 -0.109015,-0.34737 0.231084,-0.003 0.518266,0.15334 0.638181,0.34737 0.270688,0.43798 0.148563,0.43798 -0.529166,0 z m -1.411111,-0.70555 c -0.317956,-0.20548 -0.361468,-0.34413 -0.109015,-0.34738 0.231084,-0.003 0.518266,0.15335 0.638181,0.34738 0.270688,0.43798 0.148563,0.43798 -0.529166,0 z m -0.957434,-3.35139 c 0.0026,-0.97014 0.07116,-1.32515 0.152247,-0.7889 0.08109,0.53624 0.07892,1.32999 -0.0048,1.76389 -0.08374,0.43389 -0.150081,-0.005 -0.147432,-0.97499 z m 40.069415,-1.35538 c 0.216097,-0.26039 0.275217,-0.60334 0.131387,-0.76211 -0.143837,-0.15878 -0.0664,-0.17652 0.17216,-0.0394 0.23852,0.13709 0.794147,0.0691 1.234714,-0.15117 0.588587,-0.29423 0.520347,-0.16158 -0.25729,0.50016 -1.124714,0.95708 -1.938218,1.24448 -1.280971,0.45254 z M 15.301292,122.6489 c 0.01693,-0.41097 0.100521,-0.49456 0.213137,-0.21314 0.101907,0.25466 0.08937,0.55893 -0.02785,0.67616 -0.117225,0.11722 -0.200604,-0.0911 -0.185287,-0.46302 z m 120.588038,-0.65128 c -0.0833,-0.0833 -0.0938,-0.8766 -0.0234,-1.76281 0.16341,-2.05459 0.81942,-1.72574 0.71162,0.35673 -0.0733,1.41594 -0.27215,1.82219 -0.68826,1.40608 z m 1.37888,-0.44226 c 0.25467,-0.1019 0.55894,-0.0894 0.67616,0.0279 0.11723,0.11723 -0.0911,0.20061 -0.46302,0.18529 -0.41097,-0.0169 -0.49456,-0.10052 -0.21314,-0.21314 z m 9.23837,-3.28679 c 0,-0.19403 0.15875,-0.35278 0.35278,-0.35278 0.19403,0 0.35278,0.15875 0.35278,0.35278 0,0.19403 -0.15875,0.35278 -0.35278,0.35278 -0.19403,0 -0.35278,-0.15875 -0.35278,-0.35278 z m 1.76389,-0.70555 c 0.29104,-0.18809 0.76729,-0.34198 1.05833,-0.34198 0.47037,0 0.47037,0.038 0,0.34198 -0.29104,0.18808 -0.76729,0.34197 -1.05833,0.34197 -0.47037,0 -0.47037,-0.038 0,-0.34197 z m 2.29306,-0.7908 c 0.89921,-0.53091 1.65113,-0.65591 1.38841,-0.23081 -0.11134,0.18016 -0.33926,0.24301 -0.50647,0.13966 -0.16721,-0.10334 -0.40374,-0.0266 -0.52561,0.17064 -0.12187,0.19719 -0.41065,0.3537 -0.64174,0.3478 -0.23108,-0.006 -0.10265,-0.19818 0.28541,-0.42729 z M -2.7182163,116.15191 c -0.291041,-0.18809 -0.370416,-0.34198 -0.176389,-0.34198 0.1940279,0 0.5909027,0.15389 0.8819444,0.34198 0.291041,0.18808 0.3704159,0.34197 0.176389,0.34197 -0.194028,0 -0.5909027,-0.15389 -0.8819444,-0.34197 z m 155.4807263,-0.0438 c 0.2393,-0.24109 0.52396,-0.34949 0.63257,-0.24087 0.10862,0.10862 -0.0872,0.30587 -0.43509,0.43835 -0.50278,0.19145 -0.5433,0.15093 -0.19748,-0.19748 z m 4.09323,-5.60067 c 0,-1.45521 0.0623,-2.05052 0.13838,-1.32291 0.0761,0.7276 0.0761,1.91822 0,2.64583 -0.0761,0.7276 -0.13838,0.13229 -0.13838,-1.32292 z M 6.7127041,106.93591 c 0.2392997,-0.2411 0.5239587,-0.34949 0.6325747,-0.24087 0.1086157,0.10861 -0.08718,0.30587 -0.435092,0.43835 -0.5027787,0.19145 -0.5432997,0.15093 -0.1974827,-0.19748 z m 150.0801359,-0.309 c 0,-0.48507 0.0801,-0.68351 0.17793,-0.44098 0.0979,0.24254 0.0979,0.63941 0,0.88195 -0.0979,0.24253 -0.17793,0.0441 -0.17793,-0.44097 z m -75.861889,-3.0744 c -0.0234,-0.44776 0.256907,-0.94073 0.656694,-1.15469 0.569147,-0.3046 0.659637,-0.2744 0.491417,0.16398 -0.113407,0.29553 -0.336317,0.53733 -0.495357,0.53733 -0.159037,0 -0.361767,0.27781 -0.450497,0.61736 -0.12328,0.47174 -0.17099,0.43306 -0.202257,-0.16398 z m -15.38668,-0.395 c -0.582083,-0.3545 -1.501388,-0.75543 -2.0429,-0.89097 -0.541512,-0.13554 -0.903677,-0.37731 -0.804812,-0.53728 0.242278,-0.39201 -1.366521,-1.09586 -2.548748,-1.11507 -0.524447,-0.009 -2.06479,-0.5558 -3.422984,-1.216174 -1.358194,-0.660377 -4.570045,-1.883701 -7.137446,-2.718515 -2.567401,-0.834817 -4.614257,-1.676591 -4.548569,-1.870621 0.06569,-0.194027 -0.01766,-0.723274 -0.185215,-1.176121 -0.167558,-0.45284 -0.218129,-0.963347 -0.112381,-1.134444 0.193683,-0.31339 2.62579,0.646034 3.02722,1.194181 0.118707,0.16209 0.317145,0.28115 0.440972,0.26458 0.803438,-0.10753 1.301113,0.0379 1.784737,0.521527 0.303413,0.303407 0.736155,0.437627 0.96165,0.298267 0.273758,-0.169187 0.314039,-0.0981 0.121224,0.21384 -0.211425,0.342097 -0.12663,0.405017 0.316593,0.23494 0.40491,-0.15538 0.52262,-0.0984 0.355485,0.172007 -0.16996,0.275 -0.0064,0.34064 0.511331,0.20525 0.492617,-0.12882 0.678377,-0.065 0.526459,0.180767 -0.149906,0.24255 -0.01596,0.29587 0.370614,0.14753 0.359578,-0.13799 0.517853,-0.0907 0.389829,0.11644 -0.123652,0.20007 0.233761,0.348727 0.838423,0.348727 0.579676,0 1.284521,0.23057 1.566323,0.512367 0.281802,0.2818 0.610641,0.41409 0.730754,0.29398 0.120112,-0.12011 0.218386,-0.0446 0.218386,0.167837 0,0.49867 3.812143,1.931951 4.313814,1.621891 0.24444,-0.151067 0.277658,-0.0679 0.09254,0.23158 -0.20538,0.332307 -0.130943,0.406667 0.25777,0.257507 0.300596,-0.115347 0.882264,0.0254 1.292594,0.31283 0.41033,0.287397 0.746055,0.422837 0.746055,0.300957 0,-0.121867 0.258594,0.037 0.574654,0.35307 0.316059,0.31606 0.800554,0.48796 1.076655,0.38201 0.276102,-0.10595 0.418709,-0.0579 0.316905,0.10686 -0.101804,0.16472 0.445576,0.58389 1.2164,0.93148 0.770823,0.3476 1.4015,0.76165 1.4015,0.92012 0,0.15847 0.277807,0.19238 0.617354,0.0754 0.501407,-0.17281 0.48484,-0.10658 -0.0882,0.35263 -0.930467,0.74564 -1.882445,0.72785 -3.174999,-0.0593 z M 50.198439,96.211254 c 0,-0.18931 -0.899757,-0.570537 -2.469444,-1.046314 -1.349952,-0.40917 -0.584225,0.174387 0.943888,0.719334 1.613865,0.575527 1.525556,0.556597 1.525556,0.32698 z m 35.983232,3.835646 c 0,-0.384037 0.157407,-0.416127 0.677084,-0.137997 0.487247,0.260757 0.716377,0.244517 0.817207,-0.058 0.0948,-0.28441 0.204227,-0.2532 0.338417,0.0965 0.14408,0.375457 -0.0795,0.528167 -0.817194,0.558317 -0.661037,0.027 -1.015514,-0.13316 -1.015514,-0.45887 z M 136.43791,81.909095 c -0.12789,-0.20694 -0.13726,-0.471517 -0.0208,-0.587957 0.11644,-0.11645 0.21171,-0.0265 0.21171,0.199857 0,0.22636 0.15875,0.41157 0.35278,0.41157 0.19403,0 0.35278,-0.23812 0.35278,-0.529167 0,-0.29104 0.0664,-0.529157 0.14754,-0.529157 0.0811,0 0.39864,-0.0964 0.70555,-0.21413 0.39366,-0.15106 0.55802,-0.007 0.55802,0.488017 0,0.429937 -0.30772,0.784617 -0.79375,0.914864 -1.09297,0.2929 -1.24737,0.27721 -1.51381,-0.153897 z M 5.4611977,79.443757 C 5.01217,79.26367 4.727375,78.98269 4.828319,78.819363 c 0.100944,-0.16333 -0.0079,-0.30841 -0.2419197,-0.3224 -0.233999,-0.014 -1.2985774,-0.352217 -2.3657298,-0.751624 -1.48157707,-0.554507 -1.71584907,-0.729187 -0.9909584,-0.738907 0.5221257,-0.007 1.0414004,0.13626 1.1539454,0.318367 0.112545,0.1821 0.5154507,0.27123 0.8953454,0.19807 0.3798957,-0.0732 0.7828007,0.016 0.8953457,0.19807 0.1125447,0.182097 0.5568094,0.331097 0.9872554,0.331097 0.8617834,0 2.3507295,0.906454 2.3507295,1.431101 0,0.413047 -0.9694534,0.39444 -2.0511348,-0.0394 z M 2.7498352,79.11036 c -0.119915,-0.19403 -0.5579087,-0.352777 -0.9733184,-0.352777 -0.5644587,0 -0.6538877,-0.1014 -0.3539477,-0.40134 0.2999397,-0.299937 0.6965824,-0.212307 1.5698601,0.34683 0.7539984,0.482767 0.9569004,0.750284 0.5719757,0.754114 -0.328097,0.003 -0.6946537,-0.152797 -0.8145697,-0.346827 z m -5.5354665,-2.301668 c -0.101755,-0.101747 -0.9616498,-0.462487 -1.9108791,-0.801644 -2.7912922,-0.997304 -5.4292716,-2.635855 -5.4296746,-3.372592 -2.7e-4,-0.492327 0.1530336,-0.587557 0.6170012,-0.383237 0.3395491,0.14952 0.9593888,0.285557 1.3774235,0.302317 0.4180337,0.0168 0.6935413,0.1381 0.6122377,0.26966 -0.22123,0.357947 1.204201,0.727234 1.6776587,0.434627 0.2405121,-0.14864 0.3158571,-0.10062 0.1819841,0.11599 -0.2744007,0.443987 1.381488,0.923434 1.9877487,0.575537 0.2336121,-0.13406 0.3110701,-0.11784 0.1721291,0.036 -0.2665697,0.295227 1.1761214,1.597211 1.7698241,1.597211 0.5980497,0 0.75855832,0.989474 0.1955546,1.205521 -0.6630893,0.25445 -1.0114043,0.26018 -1.251008,0.0206 z M -10.763326,73.99511 c 0.0072,-0.582077 0.08625,-0.777497 0.175698,-0.43426 0.08944,0.34325 0.08356,0.819487 -0.01307,1.058334 -0.09663,0.23884 -0.169815,-0.042 -0.162626,-0.624074 z"
         id="path576-6" /><path
         style="fill:#b9b9b9;fill-opacity:1"
         d="m 44.256919,175.41857 c 0,-0.48507 0.08007,-0.68351 0.177936,-0.44097 0.09786,0.24253 0.09786,0.63941 0,0.88194 -0.09786,0.24253 -0.177936,0.0441 -0.177936,-0.44097 z m 80.785921,-4.93889 c 0,-0.48507 0.0801,-0.68351 0.17794,-0.44097 0.0979,0.24253 0.0979,0.63941 0,0.88194 -0.0979,0.24254 -0.17794,0.0441 -0.17794,-0.44097 z M -10.750254,72.054839 c 0,-0.679084 0.0726,-0.956894 0.161333,-0.617357 0.08873,0.33955 0.08873,0.895177 0,1.234724 -0.08873,0.33954 -0.161333,0.0617 -0.161333,-0.617367 z m 54.532547,-32.69653 c 0.254662,-0.101907 0.558933,-0.08937 0.676158,0.02785 0.117225,0.117225 -0.09113,0.200603 -0.463021,0.185286 -0.410966,-0.01693 -0.494559,-0.100521 -0.213137,-0.213136 z"
         id="path575-6" /><path
         style="fill:#a3a3a3;fill-opacity:1"
         d="m 44.256919,125.32413 c 0,-0.48507 0.08007,-0.68351 0.177936,-0.44097 0.09786,0.24253 0.09786,0.6394 0,0.88194 -0.09786,0.24253 -0.177936,0.0441 -0.177936,-0.44097 z M 34.379142,85.813101 c 0,-0.485067 0.08007,-0.683504 0.177936,-0.440977 0.09786,0.24254 0.09786,0.639407 0,0.881944 -0.09786,0.24253 -0.177936,0.0441 -0.177936,-0.440967 z M -21.387581,71.496282 c 0.01693,-0.410967 0.100521,-0.494557 0.213137,-0.213137 0.101907,0.254657 0.08937,0.558927 -0.02785,0.676154 -0.117225,0.11723 -0.200604,-0.0911 -0.185287,-0.463017 z"
         id="path574-4" /><path
         style="fill:#8c8c8c;fill-opacity:1"
         d="m -7.2486219,139.43524 c 0,-0.48507 0.08007,-0.68351 0.177936,-0.44097 0.09787,0.24253 0.09787,0.6394 0,0.88194 -0.09786,0.24253 -0.177936,0.0441 -0.177936,-0.44097 z"
         id="path573-9" /><path
         style="fill:#767676;fill-opacity:1"
         d="m 25.531847,141.34612 c 0.01693,-0.41097 0.100521,-0.49456 0.213137,-0.21314 0.101907,0.25466 0.08937,0.55893 -0.02785,0.67616 -0.117225,0.11722 -0.200604,-0.0911 -0.185287,-0.46302 z m 8.819444,-54.327705 c 0.01693,-0.410957 0.100521,-0.494557 0.213136,-0.21314 0.101908,0.25467 0.08938,0.558937 -0.02785,0.676157 -0.117226,0.11723 -0.200604,-0.0911 -0.185286,-0.463017 z"
         id="path572-5" /><path
         style="fill:#606060;fill-opacity:1"
         d="m -4.1293267,211.57829 c 0,-0.29104 0.06239,-0.52917 0.138646,-0.52917 0.07625,0 0.2300229,0.23813 0.3417056,0.52917 0.1116831,0.29104 0.04929,0.52916 -0.1386456,0.52916 -0.187938,0 -0.341706,-0.23812 -0.341706,-0.52916 z M 154.26769,210.51995 c -0.60685,-0.3469 -0.70285,-0.50806 -0.30778,-0.51666 0.31579,-0.007 0.77179,0.22562 1.01334,0.51666 0.53711,0.64718 0.42657,0.64718 -0.70556,0 z m -1.5875,-0.88194 c -0.11991,-0.19403 0.0388,-0.35278 0.35278,-0.35278 0.31394,0 0.47269,0.15875 0.35278,0.35278 -0.11992,0.19403 -0.27867,0.35278 -0.35278,0.35278 -0.0741,0 -0.23286,-0.15875 -0.35278,-0.35278 z m -0.17098,-2.36043 c 0.004,-1.22541 0.10036,-1.54957 0.34737,-1.16735 0.44861,0.69417 0.44861,2.36858 0,2.64584 -0.21675,0.13396 -0.35069,-0.43611 -0.34737,-1.47849 z m -156.2732577,-0.3442 c -0.0069,-0.42039 -0.210938,-0.83522 -0.4534731,-0.92184 -0.2425346,-0.0866 -0.3234296,-0.28354 -0.1797676,-0.43759 0.1436616,-0.15406 0.5702767,-0.13611 0.9480324,0.0399 0.6209957,0.28933 0.6394247,0.40454 0.192269,1.20195 -0.4726591,0.84289 -0.4951141,0.84809 -0.5070607,0.11759 z M 79.560767,191.29357 c 0,-0.6791 0.0726,-0.95691 0.16134,-0.61736 0.0887,0.33954 0.0887,0.89517 0,1.23472 -0.0887,0.33955 -0.16134,0.0617 -0.16134,-0.61736 z M 44.229068,173.09611 c 0.01693,-0.41096 0.10052,-0.49455 0.213136,-0.21313 0.101908,0.25466 0.08938,0.55893 -0.02785,0.67616 -0.117226,0.11722 -0.200604,-0.0911 -0.185286,-0.46303 z m 80.854152,-58.70809 c 0,-0.87313 0.0688,-1.23032 0.15289,-0.79375 0.0841,0.43656 0.0841,1.15093 0,1.5875 -0.0841,0.43656 -0.15289,0.0794 -0.15289,-0.79375 z M 62.853439,21.343048 c -0.43881,-0.559525 -0.426332,-0.572003 0.133193,-0.133193 0.587639,0.460858 0.774516,0.750554 0.484168,0.750554 -0.07326,0 -0.351069,-0.277813 -0.617361,-0.617361 z"
         id="path571-0" /><path
         style="fill:#494949;fill-opacity:1"
         d="m -5.2094691,210.94985 c -0.01199,-0.6245 -0.1372018,-2.28639 -0.2782357,-3.69309 -0.141035,-1.4067 -0.218775,-2.55764 -0.172755,-2.55764 0.4114936,0 1.8866701,1.81518 1.8964121,2.33351 0.01053,0.5603 0.09623,0.52613 0.5438823,-0.21684 0.4091721,-0.67911 0.4920521,-0.71968 0.3603711,-0.17639 -0.4992337,2.05974 -0.5969427,4.04173 -0.232793,4.72215 0.4865646,0.90916 -0.1305741,1.03014 -0.6557048,0.12854 -0.1977686,-0.33955 -0.3644066,-0.43591 -0.3703066,-0.21413 -0.0059,0.22178 -0.2488527,0.49461 -0.5398937,0.60629 -0.4005547,0.15371 -0.5344677,-0.0729 -0.5509767,-0.9324 z M 155.14964,210.69634 c -0.35119,-0.38805 -0.94079,-0.70555 -1.31022,-0.70555 -0.36944,0 -0.57359,-0.15875 -0.45367,-0.35278 0.11991,-0.19403 -0.0388,-0.35278 -0.35278,-0.35278 -0.31394,0 -0.47269,0.15875 -0.35278,0.35278 0.11992,0.19403 -0.0264,0.35278 -0.32521,0.35278 -0.44367,0 -0.50303,-0.30713 -0.3239,-1.6757 0.2744,-2.09635 0.47272,-2.37128 0.47272,-0.65533 0,0.78639 0.14171,1.22676 0.35278,1.09631 0.45954,-0.28401 0.45248,-1.80037 -0.0124,-2.66903 -0.42703,-0.79791 0.0814,-0.9202 0.70448,-0.16945 0.69375,0.83592 2.8329,5.48431 2.52383,5.48431 -0.15638,0 -0.57166,-0.3175 -0.92284,-0.70556 z M 15.731934,174.36023 c 0,-1.06715 0.06613,-1.50371 0.146964,-0.97013 0.08083,0.53357 0.08083,1.4067 0,1.94027 -0.08083,0.53358 -0.146964,0.097 -0.146964,-0.97014 z m 109.388616,-9.17222 c 0,-2.23132 0.0573,-3.14413 0.12729,-2.02847 0.07,1.11566 0.07,2.94129 0,4.05695 -0.07,1.11565 -0.12729,0.20284 -0.12729,-2.02848 z m -0.0148,-11.28888 c 0,-1.45521 0.0623,-2.05053 0.13839,-1.32292 0.0761,0.7276 0.0761,1.91823 0,2.64583 -0.0761,0.72761 -0.13839,0.13229 -0.13839,-1.32291 z m -0.0498,-6.17362 c 0.007,-0.58208 0.0863,-0.77749 0.1757,-0.43425 0.0894,0.34324 0.0836,0.81949 -0.0131,1.05833 -0.0966,0.23884 -0.16982,-0.042 -0.16263,-0.62408 z m -55.033199,-5.64444 c 0.007,-0.58208 0.0862,-0.7775 0.1757,-0.43426 0.0894,0.34324 0.0836,0.81949 -0.0131,1.05834 -0.0966,0.23884 -0.16981,-0.042 -0.16263,-0.62408 z M 44.283062,127.08802 c 0,-0.6791 0.0726,-0.95691 0.161334,-0.61736 0.08873,0.33954 0.08873,0.89517 0,1.23472 -0.08873,0.33955 -0.161334,0.0617 -0.161334,-0.61736 z m -9.877777,-8.46667 c 0,-0.6791 0.0726,-0.95691 0.161334,-0.61736 0.08873,0.33955 0.08873,0.89517 0,1.23472 -0.08873,0.33955 -0.161334,0.0617 -0.161334,-0.61736 z m 90.677935,-1.41111 c 0,-0.87313 0.0688,-1.23031 0.15289,-0.79375 0.0841,0.43656 0.0841,1.15094 0,1.5875 -0.0841,0.43656 -0.15289,0.0794 -0.15289,-0.79375 z m 0,-5.64444 c 0,-0.87313 0.0688,-1.23032 0.15289,-0.79375 0.0841,0.43656 0.0841,1.15093 0,1.5875 -0.0841,0.43656 -0.15289,0.0794 -0.15289,-0.79375 z m -0.0404,-10.58334 c 0,-0.48507 0.0801,-0.6835 0.17794,-0.44097 0.0979,0.24254 0.0979,0.63941 0,0.88194 -0.0979,0.24254 -0.17794,0.0441 -0.17794,-0.44097 z m 42.0067,-2.116651 c 0,-0.679097 0.0726,-0.956907 0.16133,-0.617357 0.0887,0.339537 0.0887,0.895164 0,1.234711 -0.0887,0.33955 -0.16133,0.0617 -0.16133,-0.617354 z"
         id="path570-4" /><path
         style="fill:#333333;fill-opacity:1"
         d="m 72.423409,216.46496 c -1.067144,-0.27897 -3.310272,-1.13822 -4.984742,-1.90943 -1.674471,-0.77121 -5.246346,-2.33494 -7.9375,-3.47496 -7.272925,-3.08093 -26.665924,-11.96468 -33.115226,-15.16976 -3.104445,-1.54281 -7.311319,-3.55023 -9.348611,-4.46094 -2.037291,-0.91071 -6.244166,-2.8435 -9.3486085,-4.29508 -3.1044422,-1.45159 -6.99381507,-3.19448 -8.64305008,-3.87309 -1.64923512,-0.67861 -4.26579452,-1.88918 -5.81457662,-2.69015 -5.1492928,-2.66302 -8.6214388,-7.20082 -9.3771158,-12.25509 -0.201998,-1.35104 -0.317762,-16.41838 -0.286609,-37.30377 l 0.05226,-35.037236 -1.264373,-1.298841 c -0.695405,-0.714357 -1.709232,-2.251328 -2.252948,-3.415492 l -0.988574,-2.116648 V 78.750683 68.336875 l 1.201188,-2.440474 c 1.183974,-2.405498 3.385135,-4.91501 4.668312,-5.322275 0.361289,-0.114669 0.656888,-0.35654 0.656888,-0.537493 0,-0.180953 0.238125,-0.329005 0.529167,-0.329005 0.291041,0 0.529166,-0.15875 0.529166,-0.352778 0,-0.194027 0.238125,-0.352777 0.529167,-0.352777 0.291042,0 0.529167,-0.15875 0.529167,-0.352778 0,-0.194028 0.30616,-0.352778 0.680357,-0.352778 0.374196,0 0.918482,-0.238125 1.209523,-0.529167 0.291042,-0.291041 0.7504966,-0.529166 1.0210103,-0.529166 0.270515,0 2.4646644,-0.803004 4.8758893,-1.784453 2.4112255,-0.981449 4.66185816,-1.873089 5.00140683,-1.981422 0.339548,-0.108334 0.61736067,-0.337205 0.61736067,-0.508603 0,-0.171398 0.3875057,-0.311633 0.8611237,-0.311633 0.4736187,0 0.9556044,-0.152872 1.0710794,-0.339715 0.1154757,-0.186844 0.7201564,-0.492281 1.3437361,-0.67875 1.1655374,-0.348531 6.7277137,-2.70116 9.2620797,-3.917574 0.784038,-0.376314 2.251048,-0.86125 3.26002,-1.077635 1.008973,-0.216386 1.924668,-0.539331 2.034878,-0.717655 0.11021,-0.178324 0.556139,-0.324226 0.990952,-0.324226 0.434812,0 0.941381,-0.135866 1.125707,-0.301924 0.375588,-0.338364 5.347815,-1.868645 8.184444,-2.518892 1.018646,-0.233506 1.852083,-0.610677 1.852083,-0.838158 0,-0.227481 -0.454766,-0.96571 -1.010592,-1.640508 -1.303914,-1.583013 -2.855225,-5.900071 -3.113312,-8.663865 -0.538559,-5.767308 2.622183,-12.022678 7.817238,-15.470959 2.524679,-1.675787 4.220131,-2.246133 7.924431,-2.665761 4.577602,-0.518558 8.923286,0.259599 12.194733,2.18364 1.358195,0.798798 3.047914,1.90365 3.754933,2.455227 0.707019,0.551578 1.379309,1.002869 1.493978,1.002869 0.34766,0 4.452477,3.961563 4.452477,4.297089 0,0.171897 0.555625,0.868165 1.234723,1.547262 0.679097,0.679097 1.234722,1.46197 1.234722,1.739718 0,0.277747 0.3175,0.674916 0.705552,0.882597 0.38806,0.207681 0.705557,0.615727 0.705557,0.906768 0,0.465362 0.892884,2.133464 1.402951,2.621009 0.673707,0.643962 4.241456,7.644165 4.241456,8.322068 0,0.232039 0.22343,0.507628 0.496517,0.612419 0.3479,0.133503 0.928637,-0.710055 1.940261,-2.818359 0.794064,-1.654888 1.443761,-3.219587 1.443761,-3.477107 0,-0.257521 0.396867,-0.939879 0.881934,-1.516351 0.485067,-0.576473 0.881947,-1.223653 0.881947,-1.438178 0,-0.214526 0.158747,-0.390047 0.352767,-0.390047 0.19403,0 0.352777,-0.238125 0.352777,-0.529167 0,-0.291041 0.16685,-0.529166 0.37078,-0.529166 0.203927,0 0.596804,-0.540959 0.873054,-1.20213 0.276257,-0.661171 0.864264,-1.494608 1.306691,-1.852083 0.44243,-0.357475 1.101824,-1.126204 1.465324,-1.708287 0.563997,-0.903145 2.161378,-2.526523 5.735207,-5.828555 0.415407,-0.383808 0.923454,-0.697833 1.128994,-0.697833 0.205547,0 0.500667,-0.198438 0.655824,-0.440973 0.32155,-0.502608 4.410456,-2.527104 6.617334,-3.276361 5.289951,-1.795988 12.251281,-1.118191 16.556391,1.612029 0.908,0.575834 1.70609,1.046971 1.77354,1.046971 0.27226,0 3.02786,2.927273 3.02786,3.216503 0,0.171201 0.16132,0.311275 0.35849,0.311275 0.19716,0 0.60965,0.595312 0.91665,1.322916 0.30699,0.727605 0.80356,1.799167 1.10349,2.38125 0.76867,1.491776 0.97649,6.043155 0.41915,9.17987 -0.25781,1.451002 -0.59591,2.638185 -0.75132,2.638185 -0.15542,0 -0.28257,0.166418 -0.28257,0.369819 0,0.2034 -0.3175,1.026968 -0.70556,1.830151 -0.38805,0.803182 -0.70555,1.668638 -0.70555,1.923236 0,0.254598 -0.15875,0.462905 -0.35278,0.462905 -0.19403,0 -0.35278,0.39385 -0.35278,0.875223 0,0.661038 0.23742,0.934344 0.97014,1.116807 0.53358,0.132871 2.06354,0.691521 3.39991,1.241443 1.33637,0.549923 2.68575,1.000838 2.99861,1.002033 0.31286,0.0012 1.02355,0.23932 1.57931,0.529167 0.55575,0.289846 1.16676,0.526993 1.35779,0.526993 0.19103,0 0.88726,0.238125 1.54718,0.529166 2.21574,0.97721 3.46685,1.482242 9.13734,3.688457 3.10444,1.207845 6.04132,2.392211 6.52639,2.631924 0.48507,0.239714 1.55663,0.647665 2.38125,0.906558 0.82461,0.258893 1.4993,0.604055 1.4993,0.767026 0,0.162972 0.20842,0.296313 0.46315,0.296313 0.25472,0 1.28582,0.396875 2.29132,0.881944 1.0055,0.485069 2.22584,0.881944 2.71186,0.881944 0.48602,0 0.88367,0.122657 0.88367,0.27257 0,0.252699 2.03342,0.897708 4.32153,1.370809 0.53358,0.110324 0.97014,0.341322 0.97014,0.513328 0,0.172006 0.39687,0.312738 0.88194,0.312738 0.48507,0 0.88195,0.146438 0.88195,0.325419 0,0.17898 0.52975,0.500254 1.17723,0.713942 2.53153,0.83548 4.91443,5.03129 5.54839,9.769618 0.20406,1.525133 0.32208,6.582933 0.26228,11.239576 -0.10666,8.304475 -0.12648,8.503772 -1.03538,10.406883 -0.50965,1.067154 -1.4968,2.495895 -2.19366,3.174982 l -1.26702,1.234721 0.0119,23.812466 c 0.007,13.09688 0.13279,29.6702 0.28059,36.82961 0.1478,7.1594 0.14121,13.8238 -0.0147,14.80976 -0.15586,0.98596 -0.77132,2.7838 -1.36769,3.99519 -1.59707,3.24413 -4.48115,5.34029 -10.57417,7.6854 -8.22229,3.16462 -14.50802,5.77078 -20.10834,8.33721 -3.39548,1.55604 -7.04673,3.20342 -8.11388,3.66085 -1.06716,0.45743 -3.84528,1.69864 -6.17362,2.75825 -2.32833,1.0596 -4.6302,2.04388 -5.11527,2.18727 -1.5244,0.45065 -9.84205,4.02577 -15.16945,6.52019 -2.813385,1.31731 -6.464617,2.95157 -8.113835,3.6317 -1.649231,0.68013 -5.095923,2.19868 -7.659318,3.37456 -6.890051,3.16061 -9.455426,3.77785 -12.448908,2.99529 z m -2.177248,-49.06731 c -0.11479,-37.32853 -0.12189,-37.6554 -0.821347,-37.78758 -0.670324,-0.12668 -7.213484,-2.77037 -14.111098,-5.70143 -7.667268,-3.25811 -10.07591,-4.22895 -10.491888,-4.22892 -0.354282,4e-5 -0.444222,7.47886 -0.444222,36.93877 v 36.93872 l 3.704166,1.64409 c 7.365947,3.26936 14.707927,6.60835 17.991665,8.18225 1.843266,0.88347 3.562237,1.62028 3.819944,1.63733 0.38751,0.0257 0.44853,-6.48262 0.35278,-37.62323 z m 12.236341,36.2852 c 0.967394,-0.36493 2.991182,-1.23495 4.497313,-1.93338 1.506131,-0.69844 4.442996,-1.97103 6.526354,-2.82798 2.083368,-0.85695 5.30883,-2.26711 7.167711,-3.13369 1.85888,-0.86657 4.21909,-1.85436 5.2449,-2.19508 l 1.86511,-0.61949 -0.21105,-2.33914 c -0.11608,-1.28652 -0.24612,-17.93632 -0.28898,-36.99955 -0.0744,-33.08219 -0.10677,-34.66041 -0.71143,-34.66041 -0.61538,0 -15.235439,5.73687 -20.919926,8.20893 -1.552211,0.67502 -3.536582,1.49182 -4.409696,1.81511 l -1.587491,0.58779 -0.0324,37.38019 c -0.0295,34.10005 0.0174,37.38019 0.534147,37.38019 0.311567,0 1.358001,-0.29857 2.325398,-0.66349 z M 34.676218,135.06206 V 82.005655 l 1.241192,-1.089774 c 1.983356,-1.741401 2.416782,-1.718521 8.17516,0.431547 8.893352,3.320609 16.710802,6.415464 20.393368,8.073542 1.940277,0.873617 5.160856,2.185268 7.156834,2.914795 l 3.629049,1.326391 3.955629,-1.508681 c 2.175598,-0.829774 7.527478,-2.971042 11.893071,-4.758383 7.177931,-2.938742 10.528869,-4.145676 18.168009,-6.543661 1.35819,-0.42635 2.8594,-0.823377 3.33601,-0.882277 1.13118,-0.139807 2.66589,0.785257 3.2078,1.933521 0.80097,1.697178 1.11163,12.055381 0.91785,30.603455 -0.10574,10.12155 -0.0957,31.27499 0.0223,47.00763 l 0.21456,28.60481 h 0.77171 c 0.42444,0 2.26415,-0.62493 4.08824,-1.38874 l 3.31653,-1.38873 0.0489,-49.32307 c 0.0269,-27.12769 -0.0303,-50.617806 -0.12717,-52.200347 l -0.17604,-2.877352 -1.63672,-0.614647 c -0.9002,-0.33805 -3.19438,-1.391184 -5.0982,-2.340288 -1.90381,-0.949104 -5.71381,-2.442545 -8.46666,-3.318762 C 95.850144,70.255881 84.44887,66.024014 77.297079,62.636701 l -2.711002,-1.28402 -1.221794,0.931916 c -2.448758,1.867764 -20.108985,8.436519 -35.336677,13.143514 -4.173413,1.290031 -5.794952,1.992338 -9.090959,3.937406 -1.754507,1.035387 -2.79559,1.883601 -2.892754,2.356868 -0.08349,0.406637 -0.216824,23.717375 -0.296304,51.801745 -0.114398,40.42239 -0.05309,51.13837 0.294213,51.42661 0.875431,0.72654 6.718755,3.12531 7.664277,3.1463 l 0.970139,0.0215 z m 106.686112,42.94731 c 2.34427,-1.07368 6.28408,-2.80416 8.75514,-3.84551 4.84012,-2.03973 7.25747,-3.29961 7.40735,-3.86057 0.0518,-0.19403 0.0487,-16.02934 -0.007,-35.18958 l -0.10126,-34.8368 h -0.75274 c -0.414,0 -3.78156,1.19546 -7.48347,2.65657 -3.7019,1.46112 -8.43879,3.32643 -10.52643,4.14514 l -3.7957,1.48856 0.15364,26.63472 c 0.0845,14.6491 0.16538,30.81912 0.17973,35.93338 l 0.0261,9.29866 0.94117,-0.23621 c 0.51764,-0.12992 2.8592,-1.11468 5.20347,-2.18836 z M 15.978997,144.22671 v -35.42519 l -2.910416,-0.95398 c -1.600729,-0.52469 -4.4185411,-1.55401 -6.2618029,-2.28738 -8.3781604,-3.33337 -13.3592463,-5.28325 -13.4963563,-5.28325 -0.3395507,0 -0.5674917,29.77946 -0.3685867,48.15416 l 0.2138526,19.75555 1.2107445,1.1508 c 0.6659097,0.63293 2.5070934,1.77209 4.0915185,2.53145 11.4111016,5.46896 16.3698333,7.74636 16.9036853,7.76337 0.583995,0.0186 0.617361,-1.89495 0.617361,-35.40553 z m 54.327764,-33.55393 c 0,-7.92588 -0.052,-8.67201 -0.617357,-8.86666 -0.749557,-0.25803 -17.464504,-7.08867 -21.492426,-8.782958 -1.585873,-0.667077 -3.133685,-1.212874 -3.439583,-1.212874 -0.490846,0 -0.556178,0.988774 -0.556178,8.417522 v 8.41758 l 2.754266,1.25901 c 1.514846,0.69245 4.729533,2.05142 7.143749,3.01993 2.414216,0.9685 6.464433,2.70879 9.000482,3.8673 4.611808,2.10675 5.433286,2.4177 6.58969,2.49435 0.572287,0.0379 0.617357,-0.59077 0.617357,-8.6132 z m 15.90693,6.00575 c 4.89884,-2.15429 9.914223,-4.14548 18.075789,-7.17638 l 3.46763,-1.28774 -0.12268,-8.355517 c -0.0675,-4.595506 -0.23188,-8.464672 -0.36536,-8.598152 -0.13348,-0.13348 -1.87683,0.397387 -3.87412,1.179704 -1.99728,0.782314 -5.615785,2.142208 -8.041113,3.021992 -2.425335,0.879784 -6.870311,2.686555 -9.877723,4.015046 l -5.46802,2.415447 -0.0945,8.5406 c -0.0859,7.76938 -0.0414,8.5406 0.49272,8.5406 0.322957,0 2.936252,-1.03302 5.807347,-2.2956 z M 15.978997,90.977584 c 0,-3.950469 -0.09727,-7.892298 -0.216148,-8.759632 L 15.546701,80.640991 12.499655,79.651907 C 10.823779,79.10791 7.4682355,77.870056 5.04289,76.901122 2.6175442,75.932188 -0.95432858,74.528487 -2.8946053,73.7818 c -1.9402758,-0.746687 -4.4387386,-1.786531 -5.5521401,-2.310748 -1.1134004,-0.524207 -2.1183756,-0.859107 -2.2332786,-0.744204 -0.225131,0.225127 -0.728041,7.426208 -0.917375,13.135735 l -0.116645,3.517499 1.9402776,0.959487 c 1.0671524,0.527707 5.5915236,2.409665 10.05415916,4.182126 4.46263624,1.772448 9.38388254,3.763629 10.93610424,4.424833 1.552223,0.661217 3.258785,1.204794 3.792361,1.207964 l 0.970139,0.006 z m 125.320733,4.9126 c 2.76676,-1.054514 7.57046,-2.972962 10.67491,-4.263216 3.10444,-1.290251 6.51757,-2.697945 7.58472,-3.128212 l 1.94028,-0.782304 v -8.331115 c 0,-4.582113 -0.12513,-8.455992 -0.27805,-8.608615 -0.15293,-0.152627 -0.70855,-0.09895 -1.23472,0.119293 -0.52617,0.21824 -3.57605,1.429054 -6.77751,2.690685 -3.20146,1.261644 -7.17021,2.838225 -8.81945,3.503522 -1.64923,0.665297 -4.42736,1.727931 -6.17361,2.361415 l -3.175,1.151794 -0.003,8.602022 c -0.002,7.954545 0.0437,8.602022 0.61399,8.602022 0.33917,0 2.88037,-0.862787 5.64712,-1.917291 z M 21.533832,71.846252 c 2.587329,-1.516273 6.049813,-2.846755 18.78683,-7.218961 14.963473,-5.136476 20.522976,-7.336493 20.382523,-8.065809 -0.06897,-0.358147 -1.818717,-0.998381 -5.443448,-1.991766 -5.386875,-1.476315 -10.890715,-3.434951 -13.957209,-4.966912 -0.915181,-0.457208 -1.99945,-0.831286 -2.409486,-0.831286 -1.100278,0 -8.680244,2.806312 -14.27099,5.283514 -0.970139,0.429858 -4.145139,1.696174 -7.055555,2.814036 -2.910416,1.117862 -6.958541,2.749232 -8.9958321,3.625268 -2.0372898,0.876036 -4.5376003,1.882515 -5.5562457,2.236621 -1.0186454,0.354105 -1.8520821,0.849368 -1.8520821,1.100585 0,0.548822 7.0670511,4.143576 12.0443419,6.126522 1.966596,0.78349 4.148947,1.727518 4.849668,2.097835 1.641008,0.867257 1.639754,0.867327 3.477485,-0.209647 z M 132.47061,71.316115 c 1.02582,-0.40631 3.29389,-1.251805 5.04014,-1.878881 4.921,-1.767129 11.81805,-4.90138 11.81805,-5.370522 0,-0.232358 -0.51593,-0.53018 -1.14652,-0.661827 -0.63059,-0.131648 -3.68653,-1.284467 -6.79098,-2.561821 -3.10444,-1.277354 -8.18444,-3.306429 -11.28888,-4.509056 -13.21502,-5.119348 -17.81528,-7.084791 -17.81528,-7.611513 0,-0.646257 -1.53372,-0.238019 -5.36558,1.428184 -3.82966,1.665249 -6.51447,2.671141 -13.620671,5.103132 -3.065642,1.049173 -3.244312,1.162413 -2.645815,1.676901 0.851007,0.731557 3.964099,1.941019 13.518176,5.251925 4.36563,1.512875 10.95375,3.935135 14.64028,5.382801 10.44951,4.103424 11.27239,4.421181 11.54041,4.456381 0.13834,0.0182 1.09084,-0.299407 2.11667,-0.705704 z M 67.837323,47.798902 c 0,-0.787889 -3.211409,-7.353634 -4.227334,-8.642808 -0.965128,-1.224715 -2.338543,-2.039324 -2.014486,-1.194847 0.372546,0.97084 -1.826348,2.84634 -4.606093,3.928669 -3.553616,1.383645 -3.43643,1.845308 0.881945,3.474474 3.381566,1.275743 8.659245,2.948286 9.524999,3.018557 0.242535,0.01969 0.440969,-0.243134 0.440969,-0.584045 z m 18.954342,-0.468581 c 4.396596,-1.2594 10.326053,-3.929783 10.326053,-4.650426 0,-0.582416 -0.745037,-0.987038 -4.056926,-2.203284 -1.358184,-0.498775 -3.078835,-1.308668 -3.823649,-1.799761 -1.517241,-1.000382 -2.042768,-0.932627 -2.898725,0.37373 -0.743554,1.134824 -3.684509,8.221541 -3.684509,8.878451 0,0.626175 -0.279537,0.666623 4.137756,-0.59871 z M 47.427506,38.164559 c 1.713046,-0.789105 3.299951,-1.320202 3.526455,-1.180215 0.247,0.152655 0.317363,0.10168 0.175807,-0.127364 -0.132251,-0.213986 0.112557,-0.49252 0.556811,-0.63352 0.436056,-0.138399 1.962823,-0.792065 3.392814,-1.45259 1.429992,-0.660526 3.059899,-1.292938 3.622015,-1.405362 0.562117,-0.112423 1.02203,-0.368335 1.02203,-0.568694 0,-0.7419 -2.866438,-4.046032 -5.014729,-5.78046 -2.690084,-2.171846 -4.522587,-3.129056 -7.403068,-3.867001 -2.609477,-0.668517 -4.593706,-0.469559 -7.195244,0.721464 -4.282905,1.960779 -5.268801,7.093629 -2.154269,11.215729 1.04164,1.378617 5.225952,4.51275 6.024873,4.51275 0.182531,0 1.733458,-0.645631 3.446505,-1.434737 z m 60.802694,0.422637 c 0.58208,-0.361177 1.86014,-1.432558 2.84013,-2.380847 2.10869,-2.04048 2.79318,-3.96143 2.56004,-7.184526 -0.13323,-1.84195 -0.31818,-2.301193 -1.36602,-3.392085 -1.99092,-2.0727 -3.40339,-2.610996 -6.85114,-2.610996 -4.88474,0 -8.788819,1.799699 -12.793388,5.897479 -2.718582,2.781863 -2.612365,3.072202 1.944921,5.316091 4.826623,2.376504 10.987997,4.959133 11.901567,4.988719 0.38805,0.01257 1.1818,-0.272658 1.76389,-0.633835 z M -12.074237,212.79204 c -1.402074,-0.40798 -3.592491,-2.43941 -3.884396,-3.60245 -0.173238,-0.69023 0.0036,-1.23092 0.701804,-2.14638 1.149106,-1.50656 2.855157,-2.21884 6.0390643,-2.52135 3.4096928,-0.32396 3.5561019,-0.16023 3.8601909,4.31682 l 0.2452237,3.61038 -0.9425634,0.35836 c -1.1248844,0.42769 -4.5265565,0.41899 -6.0193235,-0.0154 z m 10.1748801,-0.0456 c -1.0606134,-0.51277 -1.6529211,-2.11364 -1.3763241,-3.7199 0.5310507,-3.08394 0.6049563,-3.26908 1.3050141,-3.26908 0.3803186,0 1.76975899,-1.0127 3.087644,-2.25045 1.3178854,-1.23775 2.7324165,-2.35718 3.1434022,-2.48762 1.5145311,-0.48069 4.1272229,1.6179 4.5316316,3.63994 0.2216657,1.10833 0.06376,1.32762 -3.4807752,4.83374 -3.4565039,3.41903 -3.8072276,3.67108 -5.07746494,3.64885 -0.75046867,-0.0131 -1.71037596,-0.1911 -2.13312766,-0.39548 z M 158.9541,212.30709 c -2.37484,-0.57555 -2.60143,-0.78795 -3.94111,-3.69442 -1.07354,-2.32908 -1.96621,-3.51578 -2.3534,-3.12858 -0.099,0.099 -0.33988,1.17307 -0.53536,2.38689 -0.34706,2.15503 -0.83261,2.91073 -2.49471,3.88273 -0.74661,0.43662 -4.69992,-1.51733 -5.88652,-2.90944 -0.4548,-0.53358 -1.02632,-0.97014 -1.27005,-0.97014 -0.72912,0 -1.61081,-1.22467 -1.61081,-2.23742 0,-1.36955 1.25074,-3.40702 2.09147,-3.40702 0.20788,0 0.37797,-0.1213 0.37797,-0.26956 0,-0.14826 0.63979,-0.54673 1.42175,-0.8855 1.29311,-0.56022 1.5162,-0.56711 2.46567,-0.0761 0.57416,0.29691 1.84312,1.24963 2.8199,2.11716 l 1.77598,1.57731 4.66599,-0.21329 c 4.21366,-0.19261 4.85736,-0.14053 6.64012,0.53726 1.99006,0.7566 2.78837,1.68007 2.78837,3.22554 0,0.93136 -2.37939,3.50851 -3.78103,4.09529 -0.62436,0.26138 -1.17999,0.46174 -1.23472,0.44524 -0.0547,-0.0165 -0.92752,-0.23067 -1.93951,-0.47593 z M 158.8538,49.091578 c -2.02985,-0.394081 -7.19526,-2.164644 -7.34953,-2.519226 -0.0647,-0.148648 -0.34212,-0.270268 -0.61655,-0.270268 -1.28378,0 -7.34575,-5.296004 -8.40369,-7.341829 -0.30995,-0.599373 -0.76198,-1.216722 -1.00452,-1.371887 -0.44617,-0.285433 -2.17649,-3.689321 -3.19202,-6.279339 -1.69127,-4.313398 -1.95601,-10.522976 -0.6465,-15.163605 0.93678,-3.319761 4.2574,-9.8399819 5.51517,-10.8293443 0.48454,-0.3811377 0.88098,-0.8842984 0.88098,-1.1181364 0,-0.4147937 1.21452,-1.6402958 1.62559,-1.6402958 0.11353,0 0.91097,-0.6201767 1.7721,-1.3781694 2.10301,-1.85113868 6.4273,-4.0554864 9.85144,-5.0218538 4.20632,-1.1871204 10.21655,-1.1141124 14.13719,0.1717276 4.64986,1.5250021 10.16625,5.4310309 13.41929,9.5018805 3.11679,3.9003559 4.88095,7.8256206 5.76802,12.8338956 1.92977,10.89512 -4.42265,22.805013 -14.89398,27.924141 -1.9986,0.977058 -4.67584,2.026522 -5.94942,2.332142 -2.50279,0.600594 -8.23604,0.689988 -10.91357,0.170167 z m 7.92731,-10.602823 c 0.93358,-1.109502 0.9344,-1.115916 0.86437,-6.790971 l -0.0701,-5.680421 5.61993,0.127222 5.61993,0.127222 1.11978,-0.942238 c 1.87081,-1.574181 1.97191,-4.336985 0.2227,-6.086186 l -0.89238,-0.892384 -5.77235,0.139347 -5.77235,0.139346 -0.11189,-5.36282 c -0.10548,-5.0554268 -0.1591,-5.4130105 -0.93552,-6.2384782 -1.19644,-1.2720321 -2.88743,-1.4865491 -4.64601,-0.5893877 -0.80303,0.4096747 -1.58745,1.1267864 -1.77652,1.6240801 -0.18621,0.4897687 -0.33856,3.0232778 -0.33856,5.6300218 v 4.739533 l -1.6757,0.0791 c -0.92163,0.04351 -3.5529,0.08319 -5.84727,0.08819 l -4.17157,0.0091 -1.0319,1.152094 c -1.61072,1.798341 -1.30692,4.343362 0.7158,5.996356 0.39742,0.324778 2.07648,0.426627 6.1898,0.375461 l 5.64445,-0.07021 0.17639,5.445372 c 0.11067,3.416679 0.34169,5.734345 0.62009,6.221029 0.72709,1.271079 1.89967,1.870175 3.66037,1.870175 1.42202,0 1.78512,-0.15578 2.58851,-1.110551 z"
         id="path569-8" /></g></g></svg>
