<svg width="600" height="600" viewBox="0 0 600 600" xmlns="http://www.w3.org/2000/svg">
    <!-- Hintergrundkreis für warme, weiche Beleuchtung -->
    <circle cx="300" cy="300" r="250" fill="#fce8c5" />

    <!-- Weihnachtsmann Körper -->
    <circle cx="300" cy="400" r="90" fill="#ff4040" stroke="#2e2e2e" stroke-width="8" />

    <!-- Weihnachtsmann Kopf -->
    <circle cx="300" cy="250" r="60" fill="#ffe0bd" stroke="#2e2e2e" stroke-width="8" />

    <!-- Weihnachtsmann Bart -->
    <path d="M250 270 C240 320, 360 320, 350 270 Q300 290, 250 270" fill="#ffffff" stroke="#2e2e2e" stroke-width="8" />
    <!-- Zusätzliche Details im Bart -->
    <path d="M270 270 Q280 300, 290 270" fill="none" stroke="#cccccc" stroke-width="4" />
    <path d="M310 270 Q320 300, 330 270" fill="none" stroke="#cccccc" stroke-width="4" />

    <!-- Gesicht -->
    <circle cx="285" cy="235" r="8" fill="#2e2e2e" />
    <circle cx="315" cy="235" r="8" fill="#2e2e2e" />
    <path d="M285 260 Q300 275, 315 260" fill="none" stroke="#ff8080" stroke-width="5" stroke-linecap="round" />
    <circle cx="300" cy="245" r="6" fill="#ffad60" />

    <!-- Wangenrötung -->
    <circle cx="270" cy="240" r="12" fill="#ff7070" opacity="0.5" />
    <circle cx="330" cy="240" r="12" fill="#ff7070" opacity="0.5" />

    <!-- Weihnachtsmann Mütze -->
    <path d="M240 200 C260 120, 340 120, 360 200 Q300 160, 240 200" fill="#ff4040" stroke="#2e2e2e" stroke-width="8" />
    <circle cx="365" cy="170" r="18" fill="#ffffff" stroke="#2e2e2e" stroke-width="6" />

    <!-- Highlights auf der Mütze -->
    <path d="M245 185 Q265 150, 285 180" fill="none" stroke="#ffffff" stroke-width="6" opacity="0.6" />

    <!-- Weihnachtsmann Gürtel -->
    <rect x="230" y="440" width="140" height="20" fill="#333" stroke="#2e2e2e" stroke-width="8" />
    <rect x="270" y="440" width="60" height="20" fill="#f3c12c" stroke="#2e2e2e" stroke-width="5" />
    <rect x="280" y="445" width="40" height="10" fill="#333" />

    <!-- Highlights und Glanzeffekte auf dem Körper -->
    <path d="M310 340 Q330 320, 340 350" fill="none" stroke="#ffffff" stroke-width="10" stroke-linecap="round" opacity="0.5" />
    <path d="M260 400 Q280 380, 300 410" fill="none" stroke="#ffffff" stroke-width="10" stroke-linecap="round" opacity="0.5" />

    <!-- Messer (mit Glanzeffekt) -->
    <rect x="310" y="370" width="150" height="12" fill="#aaa" transform="rotate(45 310 370)" stroke="#2e2e2e" stroke-width="6" />
    <rect x="435" y="375" width="30" height="12" fill="#4d4d4d" transform="rotate(45 310 370)" stroke="#2e2e2e" stroke-width="6" />
    <path d="M325 380 L410 450" stroke="#ffffff" stroke-width="6" stroke-linecap="round" opacity="0.3" />

    <!-- 3D Benchy Boot (als Kuchen dargestellt) -->
    <rect x="220" y="500" width="160" height="60" fill="#d2691e" stroke="#8b4513" stroke-width="8" />
    <circle cx="300" cy="490" r="35" fill="#d2691e" stroke="#8b4513" stroke-width="8" />

    <!-- Details im Boot -->
    <path d="M260 500 L260 560 M340 500 L340 560" stroke="#ffffff" stroke-width="8" stroke-linecap="round" />
    <path d="M240 520 L360 520" stroke="#ffffff" stroke-width="8" stroke-linecap="round" />

    <!-- Sahnetupfer mit Schatten -->
    <circle cx="260" cy="510" r="12" fill="#ffffff" stroke="#2e2e2e" stroke-width="4" />
    <circle cx="340" cy="510" r="12" fill="#ffffff" stroke="#2e2e2e" stroke-width="4" />
    <circle cx="300" cy="540" r="12" fill="#ffffff" stroke="#2e2e2e" stroke-width="4" />

    <!-- Lichtpunkte und kleine Glanzeffekte auf dem Körper und Kopf -->
    <circle cx="330" cy="380" r="5" fill="#ffffff" opacity="0.6" />
    <circle cx="270" cy="420" r="5" fill="#ffffff" opacity="0.6" />
    <circle cx="310" cy="470" r="5" fill="#ffffff" opacity="0.6" />

    <!-- Zusätzliche Glanzeffekte auf dem Körper -->
    <path d="M260 450 Q280 430, 300 460" fill="none" stroke="#ff7070" stroke-width="10" stroke-linecap="round" opacity="0.3" />

    <!-- Weihnachtsbaum im Hintergrund -->
    <path d="M150 570 L200 470 L250 570 Z" fill="#ff4040" stroke="#2e2e2e" stroke-width="5" />
    <path d="M450 570 L500 470 L550 570 Z" fill="#ff4040" stroke="#2e2e2e" stroke-width="5" />

    <!-- Sterne und Lichtpunkte im Hintergrund -->
    <circle cx="100" cy="100" r="8" fill="#ffffff" opacity="0.8" />
    <circle cx="500" cy="150" r="10" fill="#ffffff" opacity="0.8" />
    <circle cx="250" cy="50" r="6" fill="#ffffff" opacity="0.6" />
    <circle cx="400" cy="100" r="8" fill="#ffffff" opacity="0.8" />
</svg>
