<?xml version="1.0" encoding="UTF-8" standalone="no"?>
<!-- Created with Inkscape (http://www.inkscape.org/) -->

<svg
   width="192.02055mm"
   height="202.40437mm"
   viewBox="0 0 192.02055 202.40437"
   version="1.1"
   id="svg1"
   xml:space="preserve"
   inkscape:export-filename="OrcaSlicer_about.svg"
   inkscape:export-xdpi="107.82121"
   inkscape:export-ydpi="107.82121"
   xmlns:inkscape="http://www.inkscape.org/namespaces/inkscape"
   xmlns:sodipodi="http://sodipodi.sourceforge.net/DTD/sodipodi-0.dtd"
   xmlns="http://www.w3.org/2000/svg"
   xmlns:svg="http://www.w3.org/2000/svg"><sodipodi:namedview
     id="namedview1"
     pagecolor="#ffffff"
     bordercolor="#000000"
     borderopacity="0.25"
     inkscape:showpageshadow="2"
     inkscape:pageopacity="0.0"
     inkscape:pagecheckerboard="0"
     inkscape:deskcolor="#d1d1d1"
     inkscape:document-units="mm"
     showguides="true"><inkscape:page
       x="0"
       y="0"
       width="192.02055"
       height="202.40437"
       id="page2"
       margin="0"
       bleed="0" /></sodipodi:namedview><defs
     id="defs1" /><g
     inkscape:label="Ebene 1"
     inkscape:groupmode="layer"
     id="layer1"
     transform="translate(5.2869386,-22.754168)"><path
       style="fill:#2b0000;fill-opacity:1;stroke-width:2"
       d="M 292,833.26424 C 252.01522,815.98142 209.27672,796.37616 130,758.95068 108.55,748.82442 78.208898,734.85952 62.57533,727.91756 21.537846,709.6952 11.727644,702.06948 2.144532,680.94312 -1.80423,672.23792 -1.91332,668.32192 -1.956076,533.74488 -1.99549,409.68424 -2.327408,395.21806 -5.1889812,392.84316 -6.9429208,391.38752 -10.984475,385.65232 -14.170213,380.09828 L -19.962464,370 l -0.01877,-38.56648 c -0.01797,-36.92096 0.189089,-38.97668 4.852788,-48.18004 C -7.0179132,267.24811 8.945214,255.57224 36,245.85673 c 8.25,-2.96262 19.5,-7.43962 25,-9.9489 30.31831,-13.83218 56.56258,-24.08776 82.69005,-32.3131 16.12047,-5.07499 30.08212,-9.90211 31.02589,-10.72693 0.94376,-0.82482 -1.30624,-7.64418 -5,-15.15413 -6.04503,-12.29038 -6.71156,-15.35568 -6.67207,-30.68406 0.0355,-13.79696 0.90619,-18.66023 4.58662,-25.61973 C 174.23976,108.9121 184.3141,98.567596 196.3929,91.876152 206.3256,86.373601 208.39874,86 229,86 c 19.35558,0 23.0818,0.57474 31,4.781508 18.20428,9.671542 32.34836,20.747492 43.02668,33.693312 10.55758,12.79944 27.44796,40.579 32.84812,54.02518 1.43576,3.575 3.78594,6.5 5.2226,6.5 2.14484,0 12.9026,-19.05716 12.9026,-22.85672 0,-1.71827 17.49778,-26.8572 25.4408,-36.5506 9.83134,-11.99787 29.89794,-27.583712 43.88338,-34.084496 10.3359,-4.804385 14.08578,-5.431858 32.67582,-5.467698 19.7064,-0.03799 21.7392,0.346746 33,6.245796 13.43336,7.037153 22.56444,16.098988 29.06854,28.848048 3.8098,7.46784 4.26252,10.9325 3.49182,26.72298 -0.72126,14.77727 -1.9318,20.2329 -6.52588,29.41086 -3.1022,6.1975 -5.13618,12.58205 -4.51996,14.18789 0.61622,1.60584 6.82754,4.93821 13.80294,7.40527 21.43064,7.57958 89.96644,34.42497 103.10928,40.38777 6.83472,3.10086 14.93472,6.23744 18,6.97018 3.0653,0.73275 6.47326,2.02763 7.57326,2.87752 1.1,0.84989 5.38494,2.17782 9.5221,2.95095 4.13714,0.77314 8.01526,2.20367 8.61802,3.17897 0.60278,0.9753 2.40546,1.77328 4.00596,1.77328 5.81264,0 16.8428,9.21013 21.71584,18.1326 7.175,13.13734 9.8144,33.93354 8.63066,68.00236 -1.07924,31.06106 -2.34274,35.75072 -12.61312,46.81538 l -5.5232,5.95034 1.36716,143.09942 1.36714,143.09942 -5.54528,10.9365 c -7.72638,15.23812 -16.78706,21.2483 -55.20648,36.6199 -18.22852,7.29322 -54.35222,22.74464 -80.27488,34.33646 -25.92266,11.59184 -53.64176,23.6889 -61.59802,26.88236 -7.95624,3.19346 -36.9659,15.87232 -64.4659,28.17524 -61.21078,27.3844 -73.01416,31.95198 -82.54566,31.94296 -4.94874,-0.005 -21.23552,-5.96376 -48.45434,-17.7287 z M 323.96938,667.5 c -0.0168,-77.825 -0.69184,-142.5037 -1.5,-143.73044 -0.80816,-1.22674 -3.5332,-2.8747 -6.05566,-3.66216 -2.52244,-0.78744 -22.6829,-9.00874 -44.801,-18.26956 C 249.4946,492.57702 230.18342,485 228.69898,485 226.45922,485 226,508.96752 226,625.86522 v 140.86522 l 4.30428,1.36614 c 2.36736,0.75136 23.74236,10.24318 47.5,21.09292 23.75766,10.84972 43.87072,19.74562 44.69572,19.76864 0.825,0.023 1.48622,-63.63314 1.46938,-141.45814 z M 417,783.77068 l 48,-20.66694 0.4977,-9.55186 C 465.77142,748.29834 465.32142,685.05 464.4977,613 463.0177,483.5478 462.95274,482.00728 459,482.61564 c -2.2,0.3386 -25.82134,9.3386 -52.49186,20 L 358.01628,522 l -0.008,136.25 c -0.004,74.9375 0.55906,139.08596 1.25228,142.55212 1.55506,7.77532 -2.98738,9.11522 57.73958,-17.03144 z M 190,544.14516 V 343.29032 l 5.46844,-4.30148 c 3.84046,-3.0209 7.12722,-3.9697 11.04036,-3.18708 6.1494,1.22988 68.58588,25.15586 107.10892,41.04466 C 327.15746,382.4309 340.09774,387 342.3739,387 c 2.27614,0 26.74818,-8.9223 54.38228,-19.82734 C 448.84262,346.61816 476.9063,337 484.79326,337 c 2.52274,0 6.30128,1.89364 8.39676,4.2081 3.67274,4.05652 3.85482,11.17092 5.05458,197.5 0.68454,106.31054 1.35954,196.2169 1.5,199.7919 0.31438,8.0012 2.15558,8.12442 19.23436,1.28732 L 532,734.57464 531.9442,536.28732 531.88842,338 516.4442,331.2896 C 507.9499,327.59888 478.5,316.70172 451,307.07368 408.6444,292.24454 390.2532,285.15534 345.94262,266.57756 c -4.29108,-1.79909 -7.6245,-0.88951 -22,6.00306 -18.4915,8.86607 -75.31496,29.75038 -112.3188,41.2805 -23.88588,7.44268 -49.24036,18.85714 -53.62687,24.14256 -3.35154,4.03836 -4.13137,391.64316 -0.7947,394.99112 2.93368,2.9436 24.87221,11.8977 29.29775,11.95772 3.31042,0.0449 3.5,-10.83228 3.5,-200.80736 z M 604.7934,701.7476 c 16.61362,-7.2888 34.4816,-15.40396 39.7066,-18.03368 l 9.5,-4.7813 V 544.9663 c 0,-126.27208 -0.20102,-133.96352 -3.5,-133.91786 -4.86084,0.0673 -82.48694,30.60386 -82.49416,32.45156 -0.003,0.825 -0.006,62.25 -0.006,136.5 0,124.01186 0.26806,135 3.2934,135 1.81136,0 16.88636,-5.96358 33.5,-13.2524 z M 118.7163,705.5 c 0.68182,-4.125 1.24958,-64.80266 1.26169,-134.83926 L 120,443.32146 109.5,439.87884 c -5.775,-1.89344 -25.255372,-9.1854 -43.289716,-16.20436 -18.034344,-7.01894 -33.334344,-12.21672 -34,-11.55062 C 31.544628,412.78996 31,470.7653 31,540.95794 c 0,121.77452 0.171072,127.81198 3.733062,131.74752 2.053184,2.26852 12.403184,8.37286 23,13.56524 23.180208,11.35814 56.786238,26.70618 58.505258,26.71962 0.68107,0.005 1.79616,-3.36532 2.47798,-7.49032 z M 324,451.25028 V 417.50054 L 277.04582,398.25028 C 251.221,387.66262 229.2673,379 228.25978,379 224.76738,379 224,385.47242 224,414.9288 v 29.60166 l 46.5,20.08888 c 25.575,11.0489 48.075,20.15454 50,20.23478 3.20082,0.13342 3.5,-2.739 3.5,-33.60384 z m 87.80344,13.01334 c 25.9581,-10.305 48.77156,-19.27676 50.69656,-19.93724 3.13822,-1.07672 3.5,-4.52142 3.5,-33.32638 0,-25.40434 -0.57502,-32.3462 -2.74846,-33.18022 -2.97556,-1.14182 -55.60512,18.20458 -84.4422,31.0406 L 361,416.7877 360.45164,449.89386 C 360.04832,474.2436 360.52532,483 362.25508,483 c 1.29348,0 23.59024,-8.43138 49.54836,-18.73638 z M 119.76337,376.5 C 119.41861,334.97712 120.90105,337.93378 96,329.10486 84.45,325.0097 62.111598,316.47422 46.359108,310.13712 30.606618,303.80002 17.282042,299.0513 16.748942,299.5844 c -0.533102,0.5331 -1.508132,15.45778 -2.166736,33.16596 l -1.197462,32.19668 7.807628,3.32336 c 37.275742,15.86666 90.665388,36.62846 94.307628,36.6737 4.46967,0.0555 4.49841,-0.1362 4.26337,-28.4441 z M 623,384.40338 l 46,-18.53754 0.49736,-30.93292 c 0.27356,-17.0131 -0.30564,-32.18104 -1.28712,-33.70652 -1.43966,-2.23762 -11.19764,0.91426 -50.49736,16.31092 L 569,336.62182 568.45164,369.8109 567.90328,403 l 4.54836,-0.0295 C 574.95324,402.95422 597.7,394.59902 623,384.40338 Z M 148.29242,302.03374 C 156.38159,298.2023 184.6,287.49638 211,278.24282 c 74.51904,-26.11994 80.42288,-28.67352 76,-32.87213 -1.1,-1.04422 -11.45,-4.77591 -23,-8.29263 -11.55,-3.51673 -29.0037,-9.56982 -38.78602,-13.45133 -12.93786,-5.13358 -19.6257,-6.75873 -24.53508,-5.96205 -6.98728,1.13388 -131.750978,50.52825 -136.1789,53.91368 -3.933848,3.00769 -3.079784,4.35772 6,9.48429 8.279548,4.67475 59.21364,27.61385 61.79242,27.82935 0.71083,0.0594 7.91083,-3.02682 16,-6.85826 z m 436.00246,-7.74926 C 602.3203,287.37564 624,277.02217 624,275.32269 c 0,-0.76332 -24.975,-11.19579 -55.5,-23.18327 -30.525,-11.98747 -63.06828,-25.3418 -72.3184,-29.67627 l -16.81842,-7.88086 -21.18158,8.48516 c -11.64988,4.66684 -28.55088,10.98492 -37.55778,14.04019 -23.61214,8.00955 -24.44258,8.60844 -17.89016,12.90176 2.9425,1.928 27.15618,11.3913 53.80818,21.02955 26.65198,9.63825 58.71536,21.57845 71.25192,26.53377 l 22.79378,9.0097 10.20622,-3.60112 c 5.61344,-1.98062 16.18894,-5.89418 23.50112,-8.69682 z M 315.08078,211.5 c -1.99464,-8.10912 -15.60972,-32.76692 -19.4196,-35.17012 -2.61262,-1.648 -4.35922,-0.80721 -8.46886,4.07682 -2.84758,3.38416 -8.81084,7.60683 -13.25168,9.3837 -7.69836,3.08027 -11.88318,7.93373 -9.17544,10.64146 1.96502,1.96503 43.788,16.30902 47.95162,16.44592 3.06366,0.10074 3.47908,-0.84429 2.36396,-5.37778 z m 76.63912,-0.40847 C 413.39976,204.00688 426,197.84956 426,194.33999 c 0,-1.4183 -8.25494,-6.34927 -18.34432,-10.95772 -16.71158,-7.63322 -18.64858,-8.10366 -21.76266,-5.28545 C 382.1995,181.4394 370,208.96371 370,213.95436 c 0,4.07315 0.82962,3.9638 21.7199,-2.86283 z M 237.24576,178.79567 c 5.36484,-2.31238 14.64278,-6.46611 20.61764,-9.23051 5.97488,-2.7644 14.07488,-6.137 18,-7.49466 10.83572,-3.74797 10.10442,-7.96061 -3.71494,-21.39952 -15.13506,-14.71841 -29.17556,-21.62476 -44.01702,-21.65144 -35.98784,-0.0647 -46.4778,33.38548 -17.6225,56.19429 11.372,8.98904 13.52324,9.27723 26.73682,3.58184 z m 236.42452,-3.32309 c 10.5089,-7.77642 14.31368,-15.68375 14.32224,-29.7654 0.007,-11.53455 -0.42166,-12.66961 -6.94976,-18.40135 -17.0723,-14.98967 -48.83088,-9.40749 -71.67204,12.59773 -5.639,5.43263 -9.3685,10.68985 -9,12.68666 0.6614,3.58383 35.34656,21.71068 51.62928,26.98202 10.12834,3.27893 12.23844,2.87973 21.67028,-4.09966 z"
       id="path577"
       transform="scale(0.26458333)" /></g></svg>
